<svg width="73" height="15" viewBox="0 0 73 15" fill="none" xmlns="http://www.w3.org/2000/svg">
<g clip-path="url(#clip0_61_373)">
<path fill-rule="evenodd" clip-rule="evenodd" d="M47.6927 7.71475C47.7354 7.99475 47.7567 8.21013 47.8207 8.42552C48.2899 10.4286 49.8467 11.764 51.8728 11.9363C53.6643 12.0871 55.0719 11.3978 56.1169 9.91167C56.6287 9.2009 57.4605 9.07167 58.1216 9.65321C58.5055 9.97628 58.5482 10.4071 58.2496 10.8163C58.079 11.0317 57.9297 11.2471 57.7591 11.484C57.0766 12.4317 56.1809 13.0778 55.0719 13.4655C53.2804 14.0901 51.4889 14.1763 49.7188 13.5086C47.3301 12.6255 45.9226 10.8594 45.5173 8.33936C45.2827 6.78859 45.432 5.23782 46.1358 3.83782C47.1595 1.83475 48.759 0.607055 50.9771 0.240901C52.4486 0.00397813 53.8989 0.154747 55.2638 0.82244C57.2046 1.74859 58.3775 3.3209 58.8254 5.41013C58.9534 5.99167 58.996 6.57321 59.0387 7.15475C59.0813 7.5209 58.9107 7.67167 58.5482 7.69321C58.3775 7.69321 58.2283 7.69321 58.0576 7.69321C54.7519 7.69321 51.4463 7.69321 48.1619 7.69321C48.0126 7.71475 47.906 7.71475 47.6927 7.71475ZM56.714 5.51782C56.4368 3.64398 54.1974 2.00705 52.1287 2.13629C49.9747 2.26552 47.842 3.92398 47.7567 5.51782C50.7211 5.51782 53.7282 5.51782 56.714 5.51782Z" fill="#9D9E9E"/>
<path fill-rule="evenodd" clip-rule="evenodd" d="M30.7591 7.64999C30.7804 7.84383 30.8017 7.97306 30.823 8.12383C31.2283 10.3423 33.0197 11.8715 35.2377 11.9146C36.9226 11.9361 38.2235 11.2469 39.2046 9.86845C39.7164 9.13614 40.6335 9.04999 41.2733 9.69614C41.5719 10.0192 41.6358 10.4069 41.3373 10.7946C41.2093 10.9885 41.0813 11.1608 40.932 11.3115C40.2069 12.3885 39.2046 13.0777 37.9889 13.4869C36.1975 14.09 34.406 14.1331 32.6785 13.4438C30.2046 12.4746 28.8183 10.5577 28.5197 7.88691C28.3704 6.5946 28.4984 5.34537 29.0316 4.16076C30.0766 1.92076 31.7614 0.542294 34.214 0.219217C35.515 0.0469093 36.8159 0.154602 38.0103 0.649986C40.1856 1.5546 41.4439 3.25614 41.9344 5.56076C42.0197 6.07768 42.0837 6.63768 42.105 7.1546C42.1264 7.58537 42.0411 7.67153 41.5932 7.67153C40.8254 7.67153 40.015 7.67153 39.2259 7.67153C36.5813 7.67153 33.9368 7.67153 31.3349 7.67153C31.143 7.64999 30.9723 7.64999 30.7591 7.64999ZM39.823 5.45306C39.5458 3.60076 37.3704 2.02845 35.2377 2.07153C33.169 2.1146 31.015 3.7946 30.8444 5.45306C33.8302 5.45306 36.7946 5.45306 39.823 5.45306Z" fill="#9D9E9E"/>
<path fill-rule="evenodd" clip-rule="evenodd" d="M67.868 8.64119C68.0386 8.79196 68.124 8.87811 68.2306 8.96426C69.3822 9.95503 70.5339 10.9458 71.6642 11.9366C71.7282 12.0012 71.8349 12.0873 71.8988 12.152C72.3254 12.5827 72.368 13.2073 71.9628 13.6381C71.5789 14.0689 70.9818 14.1335 70.5339 13.7673C69.7235 13.0996 68.9557 12.4104 68.1666 11.7427C67.0363 10.7735 65.9273 9.80427 64.7969 8.83503C64.7116 8.74888 64.5837 8.66273 64.413 8.53349C64.413 8.77042 64.3917 8.92119 64.3917 9.07196C64.3917 11.8073 64.3917 9.76119 64.3917 12.4966C64.3917 12.6258 64.3917 12.755 64.3917 12.8843C64.3491 13.4873 63.9012 13.9181 63.304 13.875C62.7282 13.8535 62.3443 13.4227 62.323 12.8196C62.323 12.6904 62.323 12.5612 62.323 12.432C62.323 7.0258 62.323 6.40119 62.323 0.995033C62.323 0.822726 62.323 0.671956 62.323 0.499649C62.323 0.111956 62.3657 0.0473411 62.7282 0.0473411C63.2187 0.0258026 63.7093 0.0258026 64.1998 0.0258026C65.3728 0.0258026 66.5884 0.0688795 67.7614 0.00426413C69.7448 -0.0818897 71.9628 1.5335 72.1761 3.88119C72.368 5.99196 70.9391 7.99503 68.8064 8.4258C68.5292 8.49042 68.2306 8.57657 67.868 8.64119ZM64.2638 6.98273C64.3917 7.00426 64.477 7.00426 64.541 7.00426C65.5221 7.00426 66.5244 7.00426 67.5055 7.00426C67.7827 7.00426 68.0813 6.98273 68.3586 6.87503C69.2756 6.59503 70.0007 6.03503 70.2353 5.04426C70.6405 3.34273 69.3823 1.79196 67.6548 1.79196C66.6311 1.79196 65.6287 1.79196 64.5837 1.79196C64.4557 1.79196 64.3491 1.81349 64.2211 1.81349C64.2638 3.53657 64.2638 5.23811 64.2638 6.98273Z" fill="#9D9E9E"/>
<path fill-rule="evenodd" clip-rule="evenodd" d="M23.0813 7.67171C21.1192 7.67171 19.2211 7.67171 17.2804 7.67171C17.2804 7.84402 17.2591 7.99479 17.2591 8.14556C17.2591 9.65325 17.2591 11.1394 17.2591 12.6471C17.2591 12.8409 17.2591 13.0348 17.2164 13.1856C17.0671 13.6379 16.5979 13.9179 16.15 13.8963C15.6595 13.8532 15.2543 13.4656 15.1903 12.9702C15.169 12.8409 15.1903 12.7332 15.1903 12.604C15.1903 7.24094 15.169 6.59479 15.169 1.25325C15.169 1.03787 15.1903 0.822482 15.2543 0.628636C15.4249 0.176328 15.8941 -0.0821336 16.3846 -0.0175182C16.8325 0.0470972 17.2164 0.434789 17.2591 0.908635C17.2804 1.0594 17.2591 1.18864 17.2591 1.3394C17.2591 4.09633 17.2804 2.13633 17.2804 4.89325C17.2804 5.06556 17.3017 5.21633 17.3017 5.3671C17.6643 5.45325 22.6974 5.45325 23.0813 5.3671C23.0813 5.23787 23.1027 5.10863 23.1027 4.95787C23.1027 3.75171 23.1027 2.52402 23.1027 1.31787C23.1027 1.18864 23.1027 1.08094 23.1027 0.951712C23.1453 0.413251 23.5505 0.00402028 24.0837 -0.0175182C24.6169 -0.0390566 25.1074 0.370174 25.1714 0.908635C25.1927 1.03787 25.1714 1.14556 25.1714 1.27479C25.1714 5.04402 25.1714 8.79171 25.1714 12.5609C25.1714 12.6902 25.1714 12.7979 25.1714 12.9271C25.1074 13.4656 24.6382 13.8963 24.105 13.8748C23.5718 13.8532 23.1453 13.4225 23.0813 12.884C23.0813 12.7548 23.0813 12.6471 23.0813 12.5179C23.0813 11.0748 23.0813 9.58863 23.0813 8.14556C23.0813 8.01633 23.0813 7.86556 23.0813 7.67171Z" fill="#9D9E9E"/>
<path fill-rule="evenodd" clip-rule="evenodd" d="M6.10501 13.9824C4.71876 13.9609 3.41781 13.6593 2.2235 12.927C1.71165 12.6255 1.24246 12.2378 0.858569 11.7855C0.666626 11.5486 0.432029 11.3117 0.346721 11.0101C0.218759 10.6224 0.197431 10.1917 0.559991 9.84704C0.965204 9.45934 1.51971 9.30857 2.07421 9.67473C2.60738 10.0624 2.86331 10.5578 3.31118 11.0101C3.95099 11.6563 4.78274 12.0009 5.67847 12.1086C6.51023 12.1947 7.32065 12.1732 8.13108 11.8932C8.45098 11.764 8.79222 11.6132 9.06947 11.3978C9.58132 10.8163 9.73061 9.99781 9.11212 9.43781C8.81354 9.17934 8.42966 8.9855 8.04577 8.81319C7.10738 8.40396 6.12634 8.12396 5.1453 7.8655C4.33487 7.67165 3.5671 7.41319 2.75667 7.17627C2.45809 7.09011 2.15952 6.91781 1.88227 6.76704C1.13582 6.35781 0.70928 5.71165 0.581318 4.89319C0.346721 3.19165 0.965204 1.66242 2.43677 0.908576C4.74009 -0.232963 7.12871 -0.12527 9.43203 1.18858C9.85857 1.4255 10.2638 1.79165 10.6263 2.11473C10.9036 2.35165 11.1169 2.69627 11.2235 3.06242C11.3301 3.51473 11.1169 3.98858 10.5624 4.11781C10.0932 4.2255 9.66663 4.07473 9.32539 3.70858C9.26141 3.64396 9.19743 3.55781 9.15478 3.49319C8.6216 2.67473 7.8325 2.22242 6.89411 2.05011C5.95573 1.87781 5.01734 1.89934 4.1216 2.2655C3.8017 2.39473 3.46046 2.56704 3.20454 2.80396C2.82065 3.32088 2.67137 4.01011 3.18321 4.65627C3.58843 5.04396 4.05762 5.25934 4.56947 5.36704C5.6998 5.64704 6.85146 5.94858 7.98179 6.22858C8.70691 6.42242 9.4107 6.65934 10.0718 7.04704C10.9249 7.49934 11.5434 8.16704 11.7567 9.13627C12.0126 10.3209 11.7567 11.4409 10.8396 12.3024C9.79459 13.2501 8.60028 13.767 7.21402 13.9178C6.83013 13.9609 6.44625 13.9609 6.10501 13.9824Z" fill="#9D9E9E"/>
</g>
<defs>
<clipPath id="clip0_61_373">
<rect width="72" height="14" fill="white" transform="translate(0.240112 0.00390625)"/>
</clipPath>
</defs>
</svg>
