<svg width="22" height="22" viewBox="0 0 22 22" fill="none" xmlns="http://www.w3.org/2000/svg">
<g clip-path="url(#clip0_2_15)">
<path d="M12.3963 2.97602C13.3592 2.53835 14.147 2.36328 15.46 2.36328C18.6987 2.36328 21.0621 5.07682 21.0621 8.57816C21.0621 11.2042 19.5741 13.8302 16.8605 16.2811C15.3725 17.5941 13.5343 18.9071 12.2213 19.5198L11.4335 19.9575L10.6457 19.6074C9.33266 18.9071 7.49445 17.5941 6.00638 16.3686C3.29285 13.8302 1.80478 11.2917 1.80478 8.57816C1.80478 5.07682 4.16818 2.36328 7.49445 2.36328C8.71992 2.36328 9.59526 2.53835 10.5581 2.97602C10.9083 3.15108 11.1709 3.32615 11.521 3.58875C11.6961 3.32615 12.0462 3.15108 12.3963 2.97602ZM15.6351 14.9681C18.086 12.7798 19.3115 10.679 19.3115 8.57816C19.3115 6.03969 17.6483 4.11395 15.3725 4.11395C14.3221 4.11395 13.7969 4.20148 13.0966 4.55162C12.6589 4.72668 12.3088 4.98928 11.9587 5.33942L11.4335 6.03969L10.8207 5.33942C10.4706 4.98928 10.1205 4.72668 9.77032 4.55162C8.98252 4.20148 8.45732 4.11395 7.49445 4.11395C5.21858 4.11395 3.55545 5.95215 3.55545 8.57816C3.55545 10.679 4.78092 12.7798 7.23185 14.9681C8.54485 16.1936 10.2955 17.3315 11.4335 17.9442C12.6589 17.419 14.3221 16.1936 15.6351 14.9681Z" fill="#004778"/>
</g>
<defs>
<clipPath id="clip0_2_15">
<rect width="21.008" height="21.008" fill="white" transform="translate(0.929443 0.61261)"/>
</clipPath>
</defs>
</svg>
