<svg width="26" height="27" viewBox="0 0 26 27" fill="none" xmlns="http://www.w3.org/2000/svg">
<path d="M24.375 13.0376V10.6001C24.375 9.70259 23.6474 8.9751 22.75 8.9751H4.875C3.97881 8.9751 3.25 8.24628 3.25 7.3501C3.25 6.45391 3.97881 5.7251 4.875 5.7251H22.75C23.6474 5.7251 24.375 4.9975 24.375 4.1001C24.375 3.20269 23.6474 2.4751 22.75 2.4751H4.875C2.18674 2.4751 0 4.66189 0 7.3501V8.9751V21.9751C0 23.77 1.45519 25.2251 3.25 25.2251H22.75C23.6474 25.2251 24.375 24.4976 24.375 23.6001V21.1626C25.2724 21.1626 26 20.4351 26 19.5376V14.6626C26 13.7651 25.2724 13.0376 24.375 13.0376ZM21.9375 18.7251C21.0401 18.7251 20.3125 17.9976 20.3125 17.1001C20.3125 16.2026 21.0401 15.4751 21.9375 15.4751C22.8349 15.4751 23.5625 16.2026 23.5625 17.1001C23.5625 17.9976 22.8349 18.7251 21.9375 18.7251Z" fill="#CADBE3"/>
</svg>
