<svg width="26" height="25" viewBox="0 0 26 25" fill="none" xmlns="http://www.w3.org/2000/svg">
<g clip-path="url(#clip0_36_164)">
<path d="M1.63636 9.66002H2.77271V16.9327H5.04543V9.66002H8.83328V16.9327H11.106V9.66002H14.8939V16.9327H17.1666V9.66002H20.9544V16.9327H23.2271V9.66002H24.3635C24.8642 9.66002 25.306 9.34533 25.4511 8.88526C25.5961 8.42519 25.4105 7.9281 24.9938 7.66141L13.6302 0.388729C13.2486 0.144512 12.7512 0.144512 12.3695 0.388729L1.00598 7.66141C0.589316 7.9281 0.403636 8.42519 0.54871 8.88526C0.693861 9.34533 1.13568 9.66002 1.63636 9.66002Z" fill="#CADBE3"/>
<path d="M24.3636 19.1141H23.2273H20.9545H17.1667H14.894H11.1061H8.8334H5.04555H2.77284H1.63648C1.00891 19.1141 0.500122 19.6026 0.500122 20.205V23.1141C0.500122 23.7166 1.00891 24.205 1.63648 24.205H24.3636C24.9912 24.205 25.5 23.7166 25.5 23.1141V20.205C25.5 19.6026 24.9912 19.1141 24.3636 19.1141Z" fill="#CADBE3"/>
</g>
<defs>
<clipPath id="clip0_36_164">
<rect width="25" height="24" fill="white" transform="translate(0.5 0.205078)"/>
</clipPath>
</defs>
</svg>
