<svg width="30" height="30" viewBox="0 0 30 30" fill="none" xmlns="http://www.w3.org/2000/svg">
<g clip-path="url(#clip0_31_96)">
<path d="M28.7675 20.2428L13.3481 4.82337C12.9461 4.42134 12.2885 4.42134 11.8864 4.82337L6.11332 10.5965C5.7113 10.9985 5.7113 11.6724 6.11332 12.0746L7.57032 13.5479H3.43062V11.1381C3.43062 10.5697 2.97175 10.1374 2.40334 10.1374H1.05982C0.491407 10.1374 0.0201416 10.5697 0.0201416 11.1381V19.3026C0.0201416 19.871 0.491407 20.3688 1.05982 20.3688H2.40334C2.97175 20.3688 3.43062 19.871 3.43062 19.3026V16.9584H10.9808L19.1212 25.0822C19.5232 25.4843 20.268 25.5968 20.7764 25.3427L28.5739 21.4398C29.0823 21.1857 29.1695 20.6448 28.7675 20.2428ZM12.0144 7.03387C12.3475 6.70089 12.8871 6.70089 13.2202 7.03387C13.5532 7.36696 13.5532 7.90664 13.2202 8.23963C12.8871 8.57272 12.3475 8.57272 12.0144 8.23973C11.6814 7.90675 11.6814 7.36696 12.0144 7.03387ZM17.5279 21.0244L7.81246 11.309L8.98163 10.1398L18.697 19.8552L17.5279 21.0244Z" fill="#CADBE3"/>
</g>
<defs>
<clipPath id="clip0_31_96">
<rect width="29" height="29" fill="white" transform="translate(0.0201416 0.5)"/>
</clipPath>
</defs>
</svg>
