<svg width="31" height="32" viewBox="0 0 31 32" fill="none" xmlns="http://www.w3.org/2000/svg">
<g clip-path="url(#clip0_32_118)">
<path d="M14.3039 11.198H7.61475V16.628H14.3039V11.198Z" fill="#CADBE3"/>
<path d="M7.72504 8.69164H14.3039V2.00061C10.9506 2.53633 8.28777 5.25132 7.72504 8.69164Z" fill="#CADBE3"/>
<path d="M16.7364 2.00061V8.6917H23.3152C22.7525 5.25132 20.0897 2.53633 16.7364 2.00061Z" fill="#CADBE3"/>
<path d="M23.4256 11.198H16.7364V16.628H23.4256V11.198Z" fill="#CADBE3"/>
<path d="M29.3039 19.1339H27.6823H25.858H24.6417H23.4255H22.8174H17.9525H16.7363H15.5201H14.3039H13.0877H8.22282H7.61473H6.3985H5.18233H3.35795H1.73637C1.06477 19.1339 0.520142 19.695 0.520142 20.387C0.520142 21.079 1.06477 21.6401 1.73637 21.6401H2.14178V27.9054C2.14178 28.5975 2.68641 29.1585 3.35801 29.1585H8.22288H13.0877H17.9526H22.8175H27.6823C28.3541 29.1585 28.8986 28.5975 28.8986 27.9054V21.6401H29.304C29.9757 21.6401 30.5202 21.0791 30.5202 20.387C30.5201 19.695 29.9757 19.1339 29.3039 19.1339ZM7.00665 22.5799V23.8329V26.6524H4.57418V21.6401H5.18227H6.3985H7.00659V22.5799H7.00665ZM11.8715 22.5799V23.8329V26.6524H9.43911V23.8329V22.5799V21.64H11.8715V22.5799ZM16.7364 22.5799V23.8329V26.6524H14.3039V23.8329V22.5799V21.64H15.5201H16.7364V22.5799ZM21.6012 22.5799V23.8329V26.6524H19.1688V23.8329V22.5799V21.64H21.6012V22.5799ZM26.4661 26.6524H24.0336V23.8329V22.5799V21.64H24.6417H25.858H26.466V26.6524H26.4661Z" fill="#CADBE3"/>
</g>
<defs>
<clipPath id="clip0_32_118">
<rect width="30" height="30.9091" fill="white" transform="translate(0.520142 0.125)"/>
</clipPath>
</defs>
</svg>
