<svg width="26" height="24" viewBox="0 0 26 24" fill="none" xmlns="http://www.w3.org/2000/svg">
<path d="M21.4794 23.1068L20.0854 13.7399C20.085 13.7375 20.0841 13.735 20.0838 13.7325C20.0783 13.6884 20.0692 13.6458 20.0564 13.6043C19.8333 12.4128 19.0432 11.3861 17.9104 10.8424C17.0998 10.4537 16.5963 9.67105 16.5963 8.80128V4.08003C16.5963 2.0863 15.1357 0.355015 13.199 0.0528123C12.0024 -0.135672 10.7937 0.185797 9.88101 0.930172C8.96787 1.67558 8.44404 2.76289 8.44404 3.91287V8.80114C8.44404 9.67091 7.94033 10.453 7.12988 10.8423C5.99746 11.3859 5.20747 12.4124 4.98384 13.6038C4.9709 13.6454 4.96182 13.6882 4.95625 13.7325C4.95586 13.735 4.95498 13.7374 4.95469 13.7399L3.56094 23.1068C3.52749 23.3315 3.59732 23.5587 3.752 23.7299C3.90703 23.9016 4.1315 24 4.36797 24H20.6724C20.9089 24 21.1334 23.9016 21.2883 23.7299C21.443 23.5587 21.5128 23.3315 21.4794 23.1068ZM12.512 3.1303C12.9623 3.1303 13.3354 3.48847 13.3354 3.92052C13.3354 4.35256 12.9623 4.71073 12.512 4.71073C12.0616 4.71073 11.6885 4.35256 11.6885 3.92052C11.6885 3.48847 12.0616 3.1303 12.512 3.1303ZM5.30786 22.44L6.47227 14.6086H18.5677L19.7324 22.4348L5.30786 22.44Z" fill="#CADBE3"/>
</svg>
