<svg width="25" height="25" viewBox="0 0 25 25" fill="none" xmlns="http://www.w3.org/2000/svg">
<g clip-path="url(#clip0_31_55)">
<path d="M10.5197 8.375H6.51971V24.375H10.5197V8.375Z" fill="#CADBE3"/>
<path d="M16.5197 8.375H12.5197V24.375H16.5197V8.375Z" fill="#CADBE3"/>
<path d="M21.5201 0.375H3.52014C1.86616 0.375 0.520142 1.72102 0.520142 3.375V21.375C0.520142 23.029 1.86616 24.375 3.52014 24.375H4.52013V8.37502C4.52013 7.272 5.41713 6.375 6.52014 6.375H11.5202H16.5202C17.6231 6.375 18.5201 7.272 18.5201 8.37502V24.375H21.5201C23.1741 24.375 24.5201 23.029 24.5201 21.375V3.375C24.5201 1.72102 23.1741 0.375 21.5201 0.375ZM14.5202 5.37502H8.52016C7.96717 5.37502 7.52017 4.92703 7.52017 4.37503C7.52017 3.82303 7.96713 3.375 8.52016 3.375H14.5202C15.0731 3.375 15.5201 3.82298 15.5201 4.37498C15.5201 4.92698 15.0731 5.37502 14.5202 5.37502ZM20.5202 19.375C19.9682 19.375 19.5202 18.927 19.5202 18.375C19.5202 17.823 19.9682 17.375 20.5202 17.375C21.0722 17.375 21.5201 17.823 21.5201 18.375C21.5201 18.927 21.0722 19.375 20.5202 19.375ZM20.5202 15.375C19.9682 15.375 19.5202 14.927 19.5202 14.375C19.5202 13.823 19.9682 13.375 20.5202 13.375C21.0722 13.375 21.5201 13.823 21.5201 14.375C21.5201 14.927 21.0722 15.375 20.5202 15.375Z" fill="#CADBE3"/>
</g>
<defs>
<clipPath id="clip0_31_55">
<rect width="24" height="24" fill="white" transform="translate(0.520142 0.375)"/>
</clipPath>
</defs>
</svg>
