<svg width="19" height="25" viewBox="0 0 19 25" fill="none" xmlns="http://www.w3.org/2000/svg">
<g clip-path="url(#clip0_31_48)">
<path fill-rule="evenodd" clip-rule="evenodd" d="M2.3968 0.793335H16.6392C17.8268 0.793335 18.7972 1.76451 18.7972 2.95298V4.42526V13.4142V15.5738H16.6392H2.3968H0.243164V13.4142V4.42083V2.94855C0.243164 1.76451 1.21363 0.793335 2.3968 0.793335ZM9.64649 12.8022C6.73509 12.6958 4.8429 10.1947 6.72623 6.83325C7.20924 5.97737 8.76465 4.43413 9.57115 3.60043C9.93896 6.12371 10.7011 7.2634 12.3009 5.44965C14.1177 10.443 12.7794 12.7135 9.64649 12.8022Z" fill="#CADBE3" stroke="#CADBE3" stroke-width="0.5669" stroke-miterlimit="22.9256"/>
<path fill-rule="evenodd" clip-rule="evenodd" d="M2.3968 22.9485H16.6392C17.8268 22.9485 18.7972 21.9773 18.7972 20.7889V19.3166V17.3787H0.243164V19.3166V20.7889C0.243164 21.9773 1.21363 22.9485 2.3968 22.9485ZM11.3969 19.3343C11.8799 19.3343 12.2698 19.7246 12.2698 20.2079C12.2698 20.6913 11.8799 21.0815 11.3969 21.0815C10.9139 21.0815 10.5239 20.6913 10.5239 20.2079C10.5195 19.729 10.9139 19.3343 11.3969 19.3343ZM7.70999 19.3343C8.193 19.3343 8.58296 19.7246 8.58296 20.2079C8.58296 20.6913 8.193 21.0815 7.70999 21.0815C7.22697 21.0815 6.83701 20.6913 6.83701 20.2079C6.83258 19.729 7.22697 19.3343 7.70999 19.3343Z" fill="#CADBE3" stroke="#CADBE3" stroke-width="0.5669" stroke-miterlimit="22.9256"/>
<path fill-rule="evenodd" clip-rule="evenodd" d="M6.77942 22.4962H8.63615V24.7667H6.77942V22.4962Z" fill="#CADBE3" stroke="#CADBE3" stroke-width="0.5669" stroke-miterlimit="22.9256"/>
<path fill-rule="evenodd" clip-rule="evenodd" d="M10.4663 22.4962H12.323V24.7667H10.4663V22.4962Z" fill="#CADBE3" stroke="#CADBE3" stroke-width="0.5669" stroke-miterlimit="22.9256"/>
<path fill-rule="evenodd" clip-rule="evenodd" d="M11.3481 10.4385C11.4146 9.26335 10.6036 8.11922 9.50467 6.9884C8.44114 8.23896 7.74542 9.41412 7.76315 10.4385C8.2506 12.5095 10.8961 12.2567 11.3481 10.4385Z" fill="#CADBE3" stroke="#CADBE3" stroke-width="0.5669" stroke-miterlimit="22.9256"/>
</g>
<defs>
<clipPath id="clip0_31_48">
<rect width="18.5806" height="24" fill="white" transform="translate(0.229858 0.780029)"/>
</clipPath>
</defs>
</svg>
