<svg width="29" height="29" viewBox="0 0 29 29" fill="none" xmlns="http://www.w3.org/2000/svg">
<g clip-path="url(#clip0_31_77)">
<path d="M18.9902 18.3721C21.43 13.8057 22.6664 10.5789 22.6664 8.7718C22.6665 4.27966 19.0118 0.625 14.5197 0.625C10.0275 0.625 6.37293 4.27966 6.37293 8.77185C6.37293 10.579 7.60936 13.8058 10.0491 18.3721C7.26609 19.0387 4.21945 20.6507 4.43596 23.454C4.96867 30.3498 24.0718 30.3477 24.6043 23.4542C24.8199 20.6622 21.8061 19.0463 18.9902 18.3721ZM14.5197 4.72279C16.7525 4.72279 18.569 6.53929 18.569 8.77213C18.569 11.005 16.7525 12.8215 14.5197 12.8215C12.2868 12.8215 10.4703 11.005 10.4703 8.77213C10.4703 6.53929 12.2868 4.72279 14.5197 4.72279ZM20.5741 25.2749C17.5124 26.8379 11.577 26.8632 8.46588 25.2748C4.88264 23.4453 6.83406 21.2544 11.1434 20.3671C13.674 24.8708 13.7991 25.0405 14.5197 25.0405C15.2239 25.0405 15.3216 24.9403 17.8973 20.3648C21.9779 21.1802 24.2655 23.3905 20.5741 25.2749Z" fill="#CADBE3"/>
</g>
<defs>
<clipPath id="clip0_31_77">
<rect width="28" height="28" fill="white" transform="translate(0.520142 0.625)"/>
</clipPath>
</defs>
</svg>
