<svg width="215" height="194" viewBox="0 0 215 194" fill="none" xmlns="http://www.w3.org/2000/svg">
<g clip-path="url(#clip0_59_367)">
<path d="M212.634 181.99V193.508H211.475V183.055H210.026C209.881 183.055 209.784 183.055 209.64 183.055H209.446C208.77 183.055 208.239 183.103 207.804 183.248C206.935 183.49 206.501 184.168 206.501 185.232C206.501 185.862 206.694 186.346 207.032 186.733C207.37 187.12 207.804 187.41 208.384 187.555C208.77 187.652 209.495 187.701 210.509 187.701H210.847L205.921 193.556H204.472L208.915 188.475C208.819 188.475 208.77 188.475 208.674 188.475C208.577 188.475 208.529 188.475 208.529 188.475C207.901 188.475 207.322 188.33 206.839 188.039C206.356 187.749 205.969 187.362 205.68 186.878C205.39 186.394 205.245 185.813 205.245 185.184C205.245 184.652 205.342 184.168 205.583 183.732C205.776 183.297 206.114 182.909 206.501 182.668C206.839 182.426 207.225 182.28 207.708 182.184C208.191 182.087 208.819 182.038 209.688 182.038L212.634 181.99ZM202.782 193.556H201.623V183.732L201.526 183.926L195.152 193.508H193.993V181.99H195.152V191.814L195.248 191.621L201.623 182.038H202.782V193.556ZM183.417 193.556V182.038H184.576V187.071H190.516V181.99H191.675V193.508H190.516V188.088H184.576V193.508H183.417V193.556ZM176.559 183.442L176.462 183.151L176.366 183.442L174.193 188.62H178.636L176.559 183.442ZM170.86 193.556L175.835 182.038H177.09L182.016 193.556H180.76L179.118 189.685H173.758L172.068 193.556H170.86ZM161.25 193.556V182.038H169.508V193.556H168.349V183.103H162.409V193.556H161.25ZM152.895 191.814L152.992 192.201L153.089 191.814L157.097 181.99H158.884V193.508H157.725V183.248L153.427 193.508H152.461L148.114 183.248V193.508H146.955V181.99H148.742L152.895 191.814ZM139.035 182.909C138.166 182.909 137.345 183.151 136.621 183.587C135.848 184.023 135.269 184.652 134.834 185.378C134.399 186.104 134.158 186.926 134.158 187.797C134.158 188.669 134.399 189.443 134.834 190.217C135.269 190.943 135.896 191.572 136.621 192.008C137.393 192.443 138.214 192.685 139.084 192.685C139.76 192.685 140.388 192.54 140.967 192.298C141.547 192.056 142.078 191.717 142.561 191.233C142.995 190.798 143.382 190.266 143.623 189.685C143.865 189.104 144.01 188.475 144.01 187.797C144.01 186.926 143.768 186.152 143.333 185.378C142.899 184.652 142.271 184.023 141.498 183.587C140.726 183.151 139.905 182.909 139.035 182.909ZM138.939 181.796C140.05 181.796 141.112 182.087 142.078 182.571C143.044 183.103 143.768 183.829 144.348 184.749C144.879 185.668 145.169 186.636 145.169 187.749C145.169 188.814 144.879 189.83 144.348 190.75C143.816 191.669 143.044 192.395 142.126 192.927C141.209 193.46 140.194 193.75 139.084 193.75C138.021 193.75 137.007 193.46 136.041 192.976C135.124 192.443 134.351 191.717 133.82 190.798C133.288 189.878 132.999 188.91 132.999 187.846C132.999 186.781 133.288 185.813 133.82 184.894C134.351 183.974 135.075 183.248 135.993 182.668C136.91 182.087 137.876 181.796 138.939 181.796ZM125.32 181.99V193.508H124.161V181.99H125.32ZM125.368 187.555L130.439 181.99H131.84L126.866 187.507L132.178 193.508H130.729L125.368 187.555ZM117.497 181.99V193.508H116.338V183.055H114.889C114.744 183.055 114.647 183.055 114.503 183.055H114.309C113.633 183.055 113.102 183.103 112.667 183.248C111.798 183.49 111.364 184.168 111.364 185.232C111.364 185.862 111.557 186.346 111.895 186.733C112.233 187.12 112.667 187.41 113.247 187.555C113.633 187.652 114.358 187.701 115.372 187.701H115.71L110.784 193.556H109.335L113.778 188.475C113.682 188.475 113.633 188.475 113.537 188.475C113.44 188.475 113.392 188.475 113.392 188.475C112.764 188.475 112.185 188.33 111.702 188.039C111.219 187.749 110.832 187.362 110.543 186.878C110.253 186.394 110.108 185.813 110.108 185.184C110.108 184.652 110.204 184.168 110.446 183.732C110.639 183.297 110.977 182.909 111.364 182.668C111.702 182.426 112.088 182.28 112.571 182.184C113.054 182.087 113.682 182.038 114.551 182.038L117.497 181.99ZM103.154 183.442L103.057 183.151L102.961 183.442L100.787 188.62H105.23L103.154 183.442ZM97.5035 193.556L102.478 182.038H103.733L108.659 193.556H107.404L105.762 189.685H100.401L98.7108 193.556H97.5035ZM87.8932 193.556V182.038H89.0522V187.071H94.9922V181.99H96.1513V193.508H94.9922V188.088H89.0522V193.508H87.8932V193.556ZM80.118 192.492H81.5185C82.1463 192.492 82.581 192.492 82.7258 192.492C83.2088 192.443 83.5951 192.347 83.9332 192.153C84.2712 191.959 84.561 191.717 84.7541 191.379C84.9473 191.04 85.0439 190.653 85.0439 190.266C85.0439 189.975 84.9956 189.685 84.8507 189.394C84.7541 189.104 84.561 188.862 84.3678 188.669C84.1746 188.475 83.8849 188.33 83.5951 188.233C83.3537 188.136 83.0639 188.088 82.7258 188.039C82.3878 187.991 81.9049 187.991 81.2771 187.991H80.0697L80.118 192.492ZM78.959 193.556V182.038H80.118V186.975H81.6634C82.5327 186.975 83.1605 187.023 83.5951 187.12C84.0298 187.217 84.4644 187.362 84.8024 187.604C85.2371 187.894 85.5751 188.281 85.8649 188.765C86.1063 189.249 86.2512 189.782 86.2512 190.314C86.2512 190.701 86.2029 191.04 86.0581 191.379C85.9615 191.717 85.7683 192.008 85.5751 192.298C85.382 192.589 85.0922 192.782 84.8024 192.976C84.4161 193.218 84.0298 193.363 83.5951 193.46C83.1605 193.556 82.4844 193.605 81.6634 193.605L78.959 193.556ZM72.4877 183.248L68.8175 193.556H67.5619L71.9082 182.038H73.1638L77.6068 193.556H76.2063L72.4877 183.248ZM60.2213 193.556V182.038H66.4994V183.103H61.3804V187.168H66.3545V188.233H61.3804V192.589H66.4994V193.653L60.2213 193.556ZM55.1506 193.556V183.103H52.5428V182.038H58.9174V183.103H56.3096V193.556H55.1506ZM51.2389 193.556H50.0798V183.732L49.9833 183.926L43.6086 193.508H42.4979V181.99H43.6569V191.814L43.7535 191.621L50.1281 182.038H51.2872V193.556H51.2389ZM34.5295 182.909C33.6603 182.909 32.8393 183.151 32.1149 183.587C31.3422 184.023 30.7627 184.652 30.328 185.378C29.8934 186.104 29.6519 186.926 29.6519 187.797C29.6519 188.669 29.8934 189.443 30.328 190.217C30.7627 190.943 31.3905 191.572 32.1149 192.008C32.8876 192.443 33.7085 192.685 34.5778 192.685C35.2539 192.685 35.8817 192.54 36.4612 192.298C37.0408 192.056 37.572 191.717 38.0549 191.233C38.4895 190.798 38.8759 190.266 39.1174 189.685C39.3588 189.104 39.5037 188.475 39.5037 187.797C39.5037 186.926 39.2622 186.152 38.8276 185.378C38.393 184.652 37.7652 184.023 36.9925 183.587C36.2198 183.151 35.3988 182.909 34.5295 182.909ZM34.4329 181.796C35.5437 181.796 36.6061 182.087 37.572 182.571C38.5378 183.103 39.2622 183.829 39.8417 184.749C40.373 185.668 40.6627 186.636 40.6627 187.749C40.6627 188.814 40.373 189.83 39.8417 190.75C39.3105 191.669 38.5378 192.395 37.6203 192.927C36.7027 193.46 35.6886 193.75 34.5778 193.75C33.5154 193.75 32.5012 193.46 31.5354 192.976C30.6178 192.443 29.8451 191.717 29.3139 190.798C28.7827 189.878 28.4929 188.91 28.4929 187.846C28.4929 186.781 28.7827 185.813 29.3139 184.894C29.8451 183.974 30.5695 183.248 31.4871 182.668C32.4046 182.087 33.3705 181.796 34.4329 181.796ZM20.9109 187.846H22.8909C23.4705 187.846 23.9534 187.797 24.2914 187.749C24.6295 187.701 24.9675 187.555 25.209 187.41C25.547 187.217 25.7885 186.926 25.9334 186.588C26.1266 186.249 26.1749 185.862 26.1749 185.474C26.1749 184.99 26.03 184.555 25.7885 184.168C25.547 183.781 25.209 183.49 24.7261 183.345C24.2914 183.151 23.7119 183.103 22.9392 183.103H22.6978H22.5046H22.3114H20.8143L20.9109 187.846ZM19.7519 193.556V182.038H22.7944C23.567 182.038 24.1948 182.087 24.6295 182.184C25.0641 182.28 25.4988 182.426 25.8368 182.668C26.1749 182.861 26.4163 183.103 26.6578 183.393C26.8992 183.684 27.0441 184.023 27.189 184.361C27.2856 184.7 27.3822 185.087 27.3822 185.474C27.3822 186.007 27.2856 186.539 27.0441 186.975C26.8027 187.41 26.5129 187.797 26.0783 188.136C25.8368 188.33 25.547 188.475 25.3056 188.572C25.0158 188.669 24.7261 188.765 24.3397 188.814C24.0017 188.862 23.567 188.91 23.0841 188.91H20.9109V193.556H19.7519ZM14.7294 193.556V183.103H12.0733V182.038H18.448V183.103H15.8402V193.556H14.7294ZM11.2523 184.99H9.94844C9.61039 184.555 9.32063 184.216 8.98258 183.974C8.54795 183.635 8.06502 183.393 7.5338 183.2C7.00257 183.006 6.47135 182.958 5.94013 182.958C5.07086 182.958 4.29817 183.2 3.52549 183.635C2.80109 184.071 2.17328 184.652 1.73865 185.426C1.30401 186.152 1.06255 186.975 1.06255 187.797C1.06255 188.669 1.30401 189.443 1.73865 190.217C2.17328 190.943 2.7528 191.572 3.52549 192.008C4.29817 192.443 5.07086 192.685 5.94013 192.685C6.66452 192.685 7.38892 192.492 8.11331 192.153C8.49965 191.959 8.78941 191.766 9.03088 191.572C9.27234 191.379 9.5621 191.04 9.90015 190.604H11.1558C10.9143 191.04 10.7211 191.33 10.528 191.572C10.3348 191.766 10.1416 192.008 9.85185 192.25C8.69282 193.266 7.34062 193.798 5.84354 193.798C4.73281 193.798 3.76695 193.508 2.84938 193.024C1.93182 192.492 1.20743 191.766 0.676204 190.846C0.144982 189.927 -0.144775 188.91 -0.144775 187.846C-0.144775 186.781 0.0966891 185.765 0.676204 184.845C1.20743 183.926 1.93182 183.2 2.84938 182.716C3.76695 182.184 4.7811 181.942 5.84354 181.942C7.05087 181.942 8.11331 182.232 9.12746 182.909C9.70698 183.297 10.2382 183.781 10.6245 184.216C10.9143 184.361 11.1075 184.603 11.2523 184.99ZM212.875 156.389V173.23H211.185V157.938H209.06C208.867 157.938 208.674 157.938 208.529 157.938H208.142C207.128 157.938 206.356 158.034 205.776 158.228C204.521 158.615 203.893 159.583 203.893 161.132C203.893 162.003 204.134 162.729 204.665 163.309C205.148 163.89 205.824 164.277 206.645 164.519C207.225 164.664 208.239 164.761 209.736 164.761H210.219L203.023 173.279H200.899L207.37 165.874C207.225 165.874 207.128 165.874 207.032 165.874C206.935 165.874 206.839 165.874 206.79 165.874C205.873 165.874 205.052 165.681 204.327 165.245C203.603 164.858 203.072 164.277 202.637 163.551C202.251 162.825 202.009 162.003 202.009 161.035C202.009 160.261 202.154 159.535 202.492 158.905C202.782 158.276 203.217 157.744 203.796 157.357C204.279 157.018 204.859 156.776 205.535 156.631C206.211 156.486 207.177 156.437 208.384 156.437L212.875 156.389ZM191.964 158.47L191.868 158.034L191.771 158.47L188.632 166.02H195.103L191.964 158.47ZM183.658 173.23L190.902 156.389H192.785L199.981 173.23H198.194L195.78 167.568H187.956L185.541 173.23H183.658ZM169.605 173.23V156.389H171.295V163.793H179.988V156.389H181.678V173.23H179.988V165.294H171.295V173.182H169.605V173.23ZM154.103 173.23V156.389H155.793V163.793H164.486V156.389H166.176V173.23H164.486V165.294H155.793V173.182H154.103V173.23ZM142.512 157.696C141.257 157.696 140.049 158.034 138.987 158.663C137.876 159.293 137.007 160.164 136.379 161.277C135.751 162.39 135.413 163.551 135.413 164.81C135.413 166.068 135.751 167.229 136.379 168.343C137.007 169.407 137.925 170.278 139.035 170.907C140.146 171.537 141.353 171.875 142.609 171.875C143.575 171.875 144.492 171.682 145.362 171.343C146.231 170.956 147.004 170.472 147.632 169.794C148.308 169.117 148.791 168.391 149.177 167.52C149.563 166.649 149.708 165.729 149.708 164.761C149.708 163.503 149.37 162.342 148.742 161.228C148.066 160.164 147.197 159.293 146.086 158.615C144.975 158.034 143.768 157.696 142.512 157.696ZM142.368 156.099C144.01 156.099 145.507 156.486 146.907 157.26C148.308 158.034 149.418 159.099 150.191 160.406C151.012 161.761 151.398 163.213 151.398 164.761C151.398 166.358 151.012 167.81 150.191 169.117C149.418 170.472 148.308 171.488 146.955 172.263C145.603 173.037 144.106 173.424 142.512 173.424C140.919 173.424 139.47 173.037 138.069 172.263C136.717 171.488 135.607 170.424 134.834 169.117C134.061 167.81 133.627 166.358 133.627 164.81C133.627 163.261 134.013 161.809 134.834 160.503C135.607 159.147 136.669 158.083 138.021 157.26C139.422 156.486 140.822 156.099 142.368 156.099ZM130.97 173.23H129.28V158.905L129.184 159.244L119.911 173.279H118.221V156.437H119.911V170.762L120.008 170.424L129.28 156.389H130.97V173.23ZM113.633 173.23H102.091V156.389H103.782V171.682H112.474V156.389H114.165V171.682H115.324V176.667H113.682L113.633 173.23ZM98.6142 173.23H96.924V158.905L96.8274 159.244L87.5551 173.279H85.8649V156.437H87.5551V170.762L87.6517 170.424L96.924 156.389H98.6142V173.23ZM78.4761 173.23V157.938H74.6126V156.389H83.9332V157.938H80.1663V173.23H78.4761ZM73.4536 160.696H71.5702C71.0872 160.067 70.6526 159.583 70.218 159.244C69.5902 158.76 68.9141 158.373 68.0931 158.131C67.3204 157.889 66.5477 157.744 65.7267 157.744C64.4711 157.744 63.3121 158.083 62.2496 158.712C61.1872 159.341 60.3179 160.212 59.6418 161.277C59.014 162.342 58.676 163.503 58.676 164.761C58.676 166.02 59.014 167.181 59.6418 168.294C60.2696 169.407 61.1389 170.278 62.2496 170.907C63.3604 171.537 64.5194 171.875 65.775 171.875C66.8858 171.875 67.8999 171.633 68.9624 171.101C69.5419 170.811 69.9765 170.52 70.3146 170.23C70.6526 169.94 71.0872 169.456 71.5702 168.826H73.4053C73.0673 169.456 72.7292 169.94 72.4877 170.23C72.2463 170.52 71.9082 170.859 71.5219 171.246C69.7833 172.746 67.8516 173.472 65.6784 173.472C64.0848 173.472 62.636 173.085 61.2838 172.311C59.9316 171.537 58.8692 170.472 58.0965 169.165C57.3238 167.81 56.9374 166.358 56.9374 164.761C56.9374 163.164 57.3238 161.712 58.0965 160.406C58.8692 159.099 59.9316 158.034 61.2355 157.26C62.5877 156.486 64.0365 156.099 65.6301 156.099C67.3687 156.099 68.9624 156.534 70.4112 157.502C71.2804 158.083 72.0048 158.76 72.5843 159.438C72.9707 159.777 73.2121 160.212 73.4536 160.696ZM45.5403 173.23V156.389H54.716V157.938H47.2306V163.842H54.4745V165.39H47.2306V171.73H54.716V173.279L45.5403 173.23ZM34.1915 163.6H36.0266C36.8959 163.6 37.572 163.551 38.0066 163.503C38.4412 163.455 38.8276 163.309 39.1656 163.116C39.6003 162.874 39.89 162.584 40.1798 162.148C40.4213 161.712 40.5661 161.277 40.5661 160.793C40.5661 160.357 40.4696 159.922 40.1798 159.486C39.9383 159.051 39.6003 158.712 39.2139 158.47C38.9725 158.325 38.6827 158.18 38.393 158.131C38.1032 158.083 37.8617 158.034 37.6686 157.986C37.4271 157.986 36.9442 157.986 36.1715 157.986H34.1915V163.6ZM34.1915 171.682H36.2681C37.1856 171.682 37.8134 171.682 38.0549 171.633C38.731 171.585 39.3105 171.44 39.7935 171.149C40.2764 170.859 40.711 170.52 41.0008 169.988C41.2905 169.504 41.4354 168.972 41.4354 168.391C41.4354 167.955 41.3388 167.52 41.194 167.133C41.0491 166.745 40.8076 166.407 40.4696 166.116C40.1798 165.826 39.7935 165.632 39.3588 165.439C38.9725 165.294 38.5861 165.197 38.1032 165.197C37.6203 165.148 36.9442 165.148 35.9783 165.148H34.1915V171.682ZM32.5495 173.23V156.389H36.4612C38.1998 156.389 39.4554 156.631 40.3247 157.163C40.9042 157.55 41.3871 158.083 41.7735 158.712C42.1115 159.389 42.3047 160.115 42.3047 160.841C42.3047 161.47 42.1598 162.051 41.87 162.583C41.7252 162.874 41.4837 163.164 41.194 163.455C40.8076 163.745 40.2281 163.987 39.4071 164.181C40.1798 164.277 40.8076 164.471 41.2422 164.713C41.6286 164.955 42.0149 165.245 42.3047 165.584C42.5944 165.971 42.8359 166.407 42.9808 166.842C43.1257 167.326 43.2222 167.81 43.2222 168.343C43.2222 168.875 43.1257 169.407 42.9808 169.891C42.8359 170.375 42.5944 170.811 42.2564 171.246C41.9666 171.633 41.5803 171.972 41.1457 172.263C40.6144 172.601 40.0349 172.843 39.3588 172.988C38.731 173.134 37.7652 173.182 36.5095 173.182L32.5495 173.23ZM16.9992 173.23V156.389H18.6895V163.793H27.3822V156.389H29.0724V173.23H27.3822V165.294H18.6895V173.182H16.9992V173.23ZM13.5704 173.23H11.8802V158.905L11.7836 159.244L2.51133 173.279H0.821083V156.437H2.51133V170.762L2.60792 170.424L11.8802 156.389H13.5704V173.23ZM52.253 89.3132L52.3979 89.168V51.7101L77.5585 34.8686V89.1196H81.76V37.6755L85.9615 40.4824V89.1196H90.1629V43.2894L94.3644 46.0963V89.1196H98.5659V48.9032L102.767 51.7101V89.168H106.631V17.5915L131.791 0.75V89.1196H135.993V3.55692L140.194 6.36384V89.168H144.396V9.17076L148.597 11.9777V89.168H152.799V14.7846L157 17.5915V89.168H157.338L157 90.5231L52.253 90.1843V89.3132ZM214.807 106.59L215 110.801H214.517C214.421 110.075 214.276 109.542 214.131 109.204C213.841 108.671 213.503 108.333 213.02 108.091C212.585 107.849 211.958 107.703 211.233 107.703H208.722V121.496C208.722 122.609 208.819 123.287 209.06 123.577C209.398 123.964 209.929 124.158 210.605 124.158H211.233V124.642H203.603V124.158H204.231C205.003 124.158 205.535 123.916 205.873 123.48C206.066 123.19 206.162 122.561 206.162 121.544V107.703H203.989C203.168 107.703 202.541 107.752 202.202 107.897C201.72 108.042 201.333 108.381 201.043 108.865C200.705 109.349 200.512 109.978 200.464 110.801H199.981L200.174 106.59H214.807ZM197.325 106.155L197.76 112.301H197.325C196.794 110.462 195.973 109.155 194.959 108.333C193.944 107.51 192.737 107.123 191.288 107.123C190.081 107.123 189.019 107.413 188.053 108.042C187.087 108.671 186.314 109.639 185.783 110.946C185.252 112.253 184.962 113.946 184.962 115.882C184.962 117.528 185.203 118.931 185.735 120.141C186.266 121.351 187.038 122.27 188.101 122.899C189.163 123.529 190.322 123.867 191.675 123.867C192.834 123.867 193.896 123.625 194.765 123.093C195.635 122.609 196.649 121.593 197.711 120.093L198.146 120.335C197.228 121.932 196.214 123.093 195.007 123.867C193.799 124.593 192.351 124.98 190.709 124.98C187.715 124.98 185.397 123.867 183.803 121.641C182.596 119.996 181.968 118.06 181.968 115.834C181.968 114.043 182.354 112.398 183.175 110.897C183.996 109.397 185.107 108.236 186.507 107.413C187.908 106.59 189.453 106.155 191.143 106.155C192.447 106.155 193.703 106.493 195.007 107.123C195.393 107.316 195.635 107.413 195.78 107.413C196.021 107.413 196.214 107.316 196.407 107.171C196.649 106.929 196.794 106.59 196.89 106.155H197.325ZM175.158 118.544H168.204L166.997 121.399C166.707 122.125 166.562 122.609 166.562 122.948C166.562 123.238 166.707 123.48 166.949 123.674C167.19 123.867 167.77 124.013 168.639 124.061V124.545H162.989V124.061C163.761 123.916 164.244 123.771 164.437 123.529C164.872 123.093 165.403 122.222 165.935 120.915L172.261 106.058H172.744L179.022 121.06C179.505 122.27 179.988 123.045 180.374 123.432C180.809 123.771 181.34 124.013 182.113 124.013V124.496H175.014V124.013C175.738 123.964 176.221 123.867 176.462 123.674C176.704 123.48 176.849 123.238 176.849 122.948C176.849 122.561 176.656 121.932 176.317 121.109L175.158 118.544ZM174.772 117.576L171.73 110.317L168.591 117.576H174.772ZM156.662 116.173V121.399C156.662 122.512 156.807 123.238 157.049 123.529C157.387 123.916 157.918 124.109 158.594 124.109H159.27V124.593H151.543V124.109H152.219C152.992 124.109 153.523 123.867 153.861 123.383C154.054 123.093 154.151 122.464 154.151 121.448V109.784C154.151 108.671 154.054 107.945 153.813 107.655C153.475 107.268 152.944 107.074 152.268 107.074H151.592V106.59H158.208C159.801 106.59 161.105 106.735 162.023 107.074C162.94 107.413 163.713 107.945 164.389 108.768C165.017 109.542 165.355 110.51 165.355 111.575C165.355 113.027 164.872 114.237 163.906 115.156C162.94 116.076 161.588 116.56 159.801 116.56C159.367 116.56 158.884 116.511 158.401 116.463C157.773 116.366 157.242 116.269 156.662 116.173ZM156.662 115.398C157.145 115.495 157.532 115.543 157.918 115.592C158.304 115.64 158.594 115.64 158.835 115.64C159.753 115.64 160.526 115.301 161.202 114.575C161.878 113.85 162.216 112.93 162.216 111.817C162.216 111.043 162.071 110.317 161.733 109.639C161.395 108.962 160.96 108.478 160.381 108.139C159.801 107.8 159.125 107.655 158.401 107.655C157.966 107.655 157.387 107.752 156.662 107.897V115.398ZM150.191 106.59L150.384 110.801H149.901C149.805 110.075 149.66 109.542 149.515 109.204C149.225 108.671 148.887 108.333 148.404 108.091C147.97 107.849 147.342 107.703 146.617 107.703H144.106V121.496C144.106 122.609 144.203 123.287 144.444 123.577C144.782 123.964 145.313 124.158 145.99 124.158H146.617V124.642H138.987V124.158H139.615C140.388 124.158 140.919 123.916 141.209 123.48C141.402 123.19 141.498 122.561 141.498 121.544V107.703H139.325C138.504 107.703 137.876 107.752 137.538 107.897C137.055 108.042 136.669 108.381 136.379 108.865C136.041 109.349 135.848 109.978 135.8 110.801H135.317L135.51 106.59H150.191ZM119.718 117.479H126.576V119.463H119.718V117.479ZM102.333 116.173V121.399C102.333 122.512 102.478 123.238 102.719 123.529C103.057 123.916 103.588 124.109 104.264 124.109H104.941V124.593H97.2137V124.109H97.8898C98.6625 124.109 99.1937 123.867 99.5318 123.383C99.7249 123.093 99.8215 122.464 99.8215 121.448V109.784C99.8215 108.671 99.7249 107.945 99.4835 107.655C99.1454 107.268 98.6142 107.074 97.9381 107.074H97.262V106.59H103.878C105.472 106.59 106.776 106.735 107.693 107.074C108.611 107.413 109.384 107.945 110.06 108.768C110.687 109.542 111.025 110.51 111.025 111.575C111.025 113.027 110.543 114.237 109.577 115.156C108.611 116.076 107.259 116.56 105.472 116.56C105.037 116.56 104.554 116.511 104.071 116.463C103.443 116.366 102.864 116.269 102.333 116.173ZM102.333 115.398C102.816 115.495 103.202 115.543 103.588 115.592C103.975 115.64 104.264 115.64 104.506 115.64C105.424 115.64 106.196 115.301 106.872 114.575C107.548 113.85 107.886 112.93 107.886 111.817C107.886 111.043 107.742 110.317 107.404 109.639C107.065 108.962 106.631 108.478 106.051 108.139C105.472 107.8 104.796 107.655 104.071 107.655C103.637 107.655 103.057 107.752 102.333 107.897V115.398ZM91.0805 109.542C91.0805 108.478 90.8873 107.8 90.5493 107.51C90.2112 107.219 89.4868 107.074 88.4244 107.074V106.59H96.1996V107.074C95.0888 107.123 94.3644 107.268 94.0747 107.607C93.7849 107.945 93.5917 108.671 93.5917 109.881V121.351C93.5917 122.561 93.7366 123.287 94.0747 123.625C94.3644 123.964 95.0888 124.109 96.1996 124.158V124.642H88.4244V124.158C89.5834 124.109 90.3078 123.964 90.5976 123.625C90.8873 123.287 91.0805 122.561 91.0805 121.351V110.994L82.7258 121.69C82.7258 122.464 82.7741 122.996 82.8707 123.238C82.9673 123.48 83.1605 123.722 83.4985 123.867C83.8366 124.013 84.4644 124.109 85.3337 124.109V124.593H77.5585V124.109C78.6692 124.061 79.3936 123.916 79.6834 123.577C79.9731 123.238 80.1663 122.512 80.1663 121.302V109.833C80.1663 108.623 80.0214 107.897 79.6834 107.558C79.3936 107.219 78.6692 107.074 77.5585 107.026V106.542H85.3337V107.026C84.2229 107.074 83.4985 107.219 83.2088 107.558C82.919 107.897 82.7258 108.623 82.7258 109.833V120.189L91.0805 109.542ZM70.2663 124.593H62.4911V124.109C63.5053 124.109 64.1814 123.964 64.5194 123.674C64.8575 123.432 65.0506 122.899 65.0506 122.077C62.0565 122.077 59.8833 121.448 58.5794 120.189C57.2755 118.931 56.5994 117.334 56.5994 115.447C56.5994 114.043 56.9857 112.833 57.7584 111.817C58.5311 110.801 59.497 110.123 60.656 109.736C61.815 109.349 63.2638 109.155 65.0506 109.155C65.0506 108.429 64.9058 107.897 64.7126 107.703C64.5194 107.461 64.278 107.316 63.9882 107.219C63.7467 107.123 63.2155 107.074 62.4428 107.074V106.59H70.218V107.074C69.1555 107.123 68.4794 107.268 68.1414 107.558C67.8033 107.849 67.6102 108.381 67.5619 109.204C69.4936 109.204 70.9907 109.397 72.0531 109.833C73.1638 110.268 74.0814 110.946 74.8541 111.914C75.6268 112.882 76.0131 114.092 76.0131 115.495C76.0131 117.334 75.3853 118.883 74.0814 120.189C72.7775 121.496 70.6043 122.125 67.5619 122.125C67.6102 122.899 67.755 123.432 68.0931 123.722C68.4311 123.964 69.1072 124.109 70.1697 124.158L70.2663 124.593ZM65.0989 121.109V110.172C63.7467 110.172 62.6843 110.317 61.9116 110.655C61.1872 110.994 60.5594 111.575 60.0282 112.349C59.5452 113.172 59.3038 114.188 59.3038 115.447C59.3038 116.85 59.5935 118.012 60.1731 118.931C60.7526 119.851 61.477 120.431 62.2496 120.722C63.0706 120.964 64.0365 121.109 65.0989 121.109ZM67.6585 121.109C68.9624 121.109 69.9765 120.915 70.7492 120.576C71.5219 120.238 72.1497 119.609 72.6809 118.737C73.2121 117.866 73.4536 116.753 73.4536 115.447C73.4536 114.237 73.2121 113.172 72.6809 112.349C72.1497 111.527 71.5219 110.946 70.7492 110.607C69.9765 110.317 68.9624 110.172 67.6585 110.172V121.109ZM50.0315 107.558H41.6769V121.302C41.6769 122.512 41.8218 123.238 42.1115 123.577C42.4013 123.916 43.1257 124.061 44.2364 124.109V124.593H36.5095V124.109C37.6203 124.061 38.3447 123.916 38.6344 123.577C38.9242 123.238 39.1174 122.512 39.1174 121.302V109.833C39.1174 108.623 38.9725 107.897 38.6344 107.558C38.3447 107.219 37.6203 107.074 36.5095 107.026V106.542H55.1506V107.026C54.0399 107.074 53.3155 107.219 53.0257 107.558C52.736 107.897 52.5428 108.623 52.5428 109.833V121.302C52.5428 122.512 52.6877 123.238 53.0257 123.577C53.3155 123.916 54.0399 124.061 55.1506 124.109V124.593H47.4237V124.109C48.5345 124.061 49.2589 123.916 49.5486 123.577C49.8384 123.238 50.0315 122.512 50.0315 121.302V107.558ZM28.831 118.544H21.8768L20.6695 121.399C20.3797 122.125 20.2348 122.609 20.2348 122.948C20.2348 123.238 20.3797 123.48 20.6212 123.674C20.8626 123.867 21.4422 124.013 22.3114 124.061V124.545H16.6129V124.061C17.3855 123.916 17.8685 123.771 18.0616 123.529C18.4963 123.093 19.0275 122.222 19.5587 120.915L25.8851 106.058H26.368L32.6461 121.06C33.129 122.27 33.612 123.045 33.9983 123.432C34.3847 123.771 34.9642 124.013 35.7369 124.013V124.496H28.6378V124.013C29.3622 123.964 29.8451 123.867 30.0866 123.674C30.328 123.48 30.4729 123.238 30.4729 122.948C30.4729 122.561 30.2798 121.932 29.9417 121.109L28.831 118.544ZM28.4929 117.576L25.4505 110.317L22.3114 117.576H28.4929ZM15.9851 106.155L16.4197 112.301H15.9851C15.4538 110.462 14.6329 109.155 13.6187 108.333C12.6046 107.51 11.3972 107.123 9.94844 107.123C8.74112 107.123 7.67867 107.413 6.71282 108.042C5.74696 108.671 4.97427 109.639 4.44305 110.946C3.91183 112.253 3.62207 113.946 3.62207 115.882C3.62207 117.528 3.86354 118.931 4.39476 120.141C4.92598 121.351 5.69867 122.27 6.76111 122.899C7.82355 123.529 8.98258 123.867 10.3348 123.867C11.4938 123.867 12.5563 123.625 13.4255 123.093C14.2948 122.609 15.309 121.593 16.3714 120.093L16.806 120.335C15.8885 121.932 14.8743 123.093 13.667 123.867C12.4597 124.593 11.0109 124.98 9.36893 124.98C6.37477 124.98 4.05671 123.867 2.46304 121.641C1.25572 119.996 0.627911 118.06 0.627911 115.834C0.627911 114.043 1.01425 112.398 1.83523 110.897C2.65621 109.397 3.76695 108.236 5.16744 107.413C6.56794 106.59 8.11331 106.155 9.80356 106.155C11.1075 106.155 12.3631 106.493 13.667 107.123C14.0533 107.316 14.2948 107.413 14.4397 107.413C14.6811 107.413 14.8743 107.316 15.0675 107.171C15.309 106.929 15.4538 106.59 15.5504 106.155H15.9851Z" fill="white"/>
</g>
<defs>
<clipPath id="clip0_59_367">
<rect width="215" height="193" fill="white" transform="translate(0.00012207 0.75)"/>
</clipPath>
</defs>
</svg>
