<svg width="187" height="166" viewBox="0 0 187 166" fill="none" xmlns="http://www.w3.org/2000/svg">
<path fill-rule="evenodd" clip-rule="evenodd" d="M184.437 155.922V165.835H183.427V156.823H182.156C182.041 156.823 181.932 156.819 181.831 156.809H181.644C181.047 156.809 180.58 156.863 180.244 156.969C179.493 157.197 179.117 157.769 179.117 158.684C179.117 159.209 179.267 159.639 179.566 159.974C179.857 160.319 180.248 160.552 180.74 160.677C181.089 160.764 181.698 160.809 182.563 160.809H182.86L178.603 165.835H177.354L181.196 161.484C181.122 161.484 181.051 161.486 180.985 161.491C180.919 161.497 180.871 161.498 180.85 161.498C180.305 161.498 179.821 161.378 179.396 161.14C178.972 160.9 178.638 160.564 178.399 160.131C178.159 159.696 178.038 159.207 178.038 158.658C178.038 158.2 178.13 157.778 178.314 157.397C178.499 157.016 178.759 156.708 179.089 156.473C179.375 156.266 179.719 156.122 180.124 156.042C180.527 155.962 181.091 155.922 181.816 155.922H184.437L184.437 155.922ZM175.93 165.835H174.933V157.39L174.865 157.576L169.359 165.835H168.362V155.922H169.359V164.367L169.427 164.181L174.933 155.922H175.93V165.835ZM159.168 165.835V155.922H160.165V160.286H165.316V155.922H166.327V165.835H165.316V161.173H160.165V165.835H159.168ZM153.244 157.162L153.175 156.894L153.107 157.162L151.244 161.611H155.091L153.244 157.162H153.244ZM148.325 165.835L152.621 155.922H153.727L157.99 165.835H156.918L155.485 162.499H150.849L149.405 165.835H148.325ZM140.012 165.835V155.922H147.171V165.835H146.16V156.823H141.008V165.835H140.012ZM132.778 164.367L132.86 164.717L132.949 164.367L136.43 155.922H137.98V165.835H136.969V157.026L133.233 165.835H132.383L128.641 157.026V165.835H127.644V155.922H129.182L132.778 164.367H132.778ZM120.761 156.701C120.009 156.701 119.309 156.892 118.658 157.273C118.009 157.654 117.492 158.169 117.106 158.814C116.722 159.458 116.528 160.157 116.528 160.905C116.528 161.646 116.722 162.337 117.106 162.974C117.492 163.614 118.014 164.12 118.672 164.494C119.33 164.868 120.041 165.056 120.802 165.056C121.378 165.056 121.924 164.95 122.437 164.736C122.952 164.522 123.406 164.221 123.798 163.833C124.19 163.445 124.495 162.995 124.71 162.485C124.926 161.974 125.035 161.436 125.035 160.865C125.035 160.124 124.841 159.435 124.455 158.792C124.067 158.153 123.545 157.642 122.886 157.266C122.23 156.889 121.522 156.701 120.761 156.701L120.761 156.701ZM120.679 155.75C121.652 155.75 122.551 155.979 123.375 156.435C124.202 156.894 124.851 157.513 125.326 158.294C125.805 159.079 126.045 159.936 126.045 160.865C126.045 161.793 125.808 162.652 125.333 163.442C124.863 164.228 124.225 164.852 123.418 165.31C122.61 165.769 121.734 166 120.789 166C119.852 166 118.979 165.771 118.166 165.315C117.354 164.856 116.712 164.238 116.24 163.454C115.767 162.671 115.532 161.821 115.532 160.905C115.532 159.999 115.767 159.15 116.237 158.353C116.707 157.555 117.338 156.922 118.126 156.454C118.92 155.986 119.77 155.75 120.679 155.75ZM108.899 155.922V165.835H107.902V155.922H108.899ZM108.941 160.691L113.331 155.922H114.549L110.232 160.665L114.846 165.835H113.573L108.941 160.691ZM102.138 155.922V165.835H101.127V156.823H99.8568C99.7413 156.823 99.633 156.819 99.5316 156.809H99.345C98.7479 156.809 98.2802 156.863 97.9449 156.969C97.1932 157.197 96.8179 157.769 96.8179 158.684C96.8179 159.209 96.9673 159.639 97.2665 159.974C97.5576 160.319 97.9489 160.552 98.4407 160.677C98.79 160.764 99.3991 160.809 100.263 160.809H100.56L96.3039 165.835H95.0544L98.8962 161.484C98.823 161.484 98.7517 161.486 98.6855 161.491C98.6192 161.497 98.5721 161.498 98.551 161.498C98.006 161.498 97.5214 161.378 97.0968 161.14C96.6723 160.9 96.3389 160.564 96.1001 160.131C95.8592 159.696 95.7387 159.207 95.7387 158.658C95.7387 158.2 95.8311 157.778 96.0148 157.397C96.1994 157.016 96.4594 156.708 96.7895 156.473C97.0756 156.266 97.4198 156.122 97.8242 156.042C98.2277 155.962 98.7917 155.922 99.5164 155.922H102.138L102.138 155.922ZM89.7463 157.162L89.6781 156.894L89.6099 157.162L87.7462 161.611H91.5931L89.7464 157.162H89.7463ZM84.8275 165.835L89.123 155.922H90.23L94.4925 165.835H93.4206L91.9874 162.499H87.3516L85.9073 165.835H84.8274H84.8275ZM76.5145 165.835V155.922H77.5112V160.286H82.6627V155.922H83.6734V165.835H82.6627V161.173H77.5112V165.835H76.5145ZM69.7902 164.934H71.0207C71.5707 164.934 71.925 164.929 72.0856 164.92C72.4911 164.887 72.8362 164.793 73.1173 164.637C73.4173 164.48 73.6503 164.256 73.8229 163.962C73.9936 163.666 74.0779 163.351 74.0779 163.009C74.0779 162.744 74.0287 162.49 73.9314 162.254C73.835 162.017 73.6935 161.813 73.5048 161.642C73.32 161.472 73.1003 161.343 72.8484 161.257C72.6257 161.178 72.3777 161.127 72.1037 161.101C71.8307 161.076 71.4073 161.064 70.8412 161.064H69.7903V164.934L69.7902 164.934ZM68.7937 165.835V155.922H69.7902V160.162H71.1381C71.8779 160.162 72.4368 160.199 72.8192 160.272C73.2016 160.345 73.5539 160.486 73.873 160.693C74.2554 160.937 74.5555 161.263 74.7743 161.675C74.9941 162.087 75.1025 162.532 75.1025 163.009C75.1025 163.327 75.0533 163.628 74.956 163.915C74.8596 164.202 74.7201 164.463 74.5364 164.699C74.3517 164.932 74.13 165.132 73.8701 165.296C73.5539 165.499 73.2016 165.64 72.8192 165.717C72.4368 165.795 71.8779 165.835 71.1381 165.835H68.7937V165.835ZM63.2095 156.969L60.02 165.835H58.9401L62.6976 155.922H63.8045L67.6294 165.835H66.425L63.2094 156.969H63.2095ZM52.6052 165.835V155.922H58.0498V156.823H53.6018V160.301H57.8964V161.203H53.6018V164.934H58.0498V165.835H52.6052V165.835ZM48.2244 165.835V156.823H45.9492V155.922H51.4831V156.823H49.2209V165.835H48.2244ZM44.8221 165.835H43.8256V157.39L43.7573 157.576L38.2515 165.835H37.2548V155.922H38.2515V164.367L38.3196 164.181L43.8256 155.922H44.8221V165.835ZM30.3719 156.701C29.6192 156.701 28.9197 156.892 28.2684 157.273C27.6189 157.654 27.1022 158.169 26.7167 158.814C26.3323 159.458 26.1388 160.157 26.1388 160.905C26.1388 161.646 26.3323 162.337 26.7167 162.974C27.1022 163.614 27.6241 164.12 28.2823 164.494C28.9408 164.868 29.6513 165.056 30.412 165.056C30.9881 165.056 31.5341 164.95 32.048 164.736C32.5629 164.522 33.0164 164.221 33.4088 163.833C33.8002 163.445 34.1054 162.995 34.3201 162.485C34.537 161.974 34.6453 161.436 34.6453 160.865C34.6453 160.124 34.4517 159.435 34.0652 158.792C33.6777 158.153 33.1559 157.642 32.4965 157.266C31.8401 156.889 31.1327 156.701 30.3718 156.701L30.3719 156.701ZM30.2898 155.75C31.2622 155.75 32.1614 155.979 32.9855 156.435C33.8125 156.894 34.4618 157.513 34.9365 158.294C35.4153 159.079 35.6561 159.936 35.6561 160.865C35.6561 161.793 35.4183 162.652 34.9435 163.442C34.4738 164.228 33.8355 164.852 33.0286 165.31C32.2207 165.769 31.3446 166 30.4001 166C29.4627 166 28.5896 165.771 27.7767 165.315C26.9647 164.856 26.3224 164.238 25.8507 163.454C25.3781 162.671 25.1422 161.821 25.1422 160.905C25.1422 159.999 25.3781 159.15 25.8478 158.353C26.3174 157.555 26.9487 156.922 27.7365 156.454C28.5304 155.986 29.3804 155.75 30.2898 155.75ZM18.5995 160.933H20.3137C20.8216 160.933 21.227 160.905 21.527 160.846C21.8292 160.79 22.0961 160.686 22.3279 160.541C22.604 160.366 22.8167 160.131 22.9633 159.839C23.1118 159.548 23.1851 159.225 23.1851 158.872C23.1851 158.454 23.0787 158.082 22.8639 157.762C22.649 157.44 22.347 157.197 21.9546 157.037C21.5932 156.884 21.0804 156.809 20.41 156.809H20.2163L20.0448 156.823H19.8862H18.5996V160.933L18.5995 160.933ZM17.6028 165.835V155.922H20.2162C20.8897 155.922 21.4236 155.962 21.815 156.04C22.2114 156.122 22.5658 156.261 22.8798 156.459C23.1538 156.63 23.3878 156.84 23.5865 157.089C23.7841 157.341 23.9357 157.616 24.0391 157.92C24.1435 158.223 24.1957 158.545 24.1957 158.884C24.1957 159.362 24.0984 159.799 23.9046 160.195C23.711 160.59 23.4299 160.919 23.0595 161.188C22.8497 161.343 22.6199 161.471 22.3749 161.566C22.1311 161.659 21.8551 161.725 21.546 161.766C21.2408 161.811 20.8826 161.834 20.4671 161.834H18.5994V165.835H17.6027L17.6028 165.835ZM13.2221 165.835V156.823H10.9469V155.922H16.4808V156.823H14.2187V165.835H13.222H13.2221ZM10.2332 158.465H9.12528C8.83919 158.084 8.56826 157.797 8.3103 157.604C7.94001 157.32 7.52652 157.099 7.06385 156.943C6.60815 156.79 6.14547 156.715 5.67581 156.715C4.93708 156.715 4.24765 156.906 3.60238 157.284C2.95996 157.663 2.44809 158.171 2.06776 158.807C1.68743 159.444 1.49678 160.129 1.49678 160.865C1.49678 161.604 1.69049 162.299 2.07682 162.946C2.46031 163.591 2.97414 164.103 3.61951 164.485C4.27088 164.866 4.96936 165.056 5.71606 165.056C6.3634 165.056 6.98859 164.903 7.59786 164.595C7.93096 164.423 8.19796 164.252 8.4028 164.078C8.6085 163.903 8.86144 163.628 9.16051 163.249H10.2615C10.0488 163.619 9.86914 163.894 9.72048 164.078C9.57399 164.261 9.38334 164.461 9.14644 164.677C8.1287 165.56 6.9695 166 5.67385 166C4.72854 166 3.86034 165.771 3.06641 165.317C2.27358 164.863 1.6473 164.24 1.18953 163.449C0.728922 162.658 0.500092 161.797 0.500092 160.865C0.500092 159.936 0.728922 159.082 1.18953 158.301C1.64719 157.52 2.27358 156.903 3.06238 156.452C3.85325 155.998 4.71938 155.772 5.66174 155.772C6.69857 155.772 7.64497 156.042 8.50412 156.586C9.02395 156.934 9.45151 157.315 9.78472 157.729C9.94527 157.927 10.0958 158.171 10.2333 158.465L10.2332 158.465ZM184.632 133.881V148.347H183.157V135.196H181.303C181.135 135.196 180.976 135.189 180.828 135.176H180.556C179.683 135.176 179.002 135.255 178.512 135.409C177.416 135.742 176.868 136.577 176.868 137.912C176.868 138.678 177.086 139.306 177.524 139.794C177.947 140.298 178.519 140.638 179.236 140.821C179.746 140.948 180.635 141.013 181.896 141.013H182.33L176.118 148.347H174.295L179.901 141.999C179.794 141.999 179.691 142.002 179.594 142.009C179.498 142.016 179.429 142.019 179.398 142.019C178.602 142.019 177.895 141.844 177.275 141.497C176.655 141.147 176.169 140.655 175.822 140.024C175.469 139.388 175.294 138.674 175.294 137.874C175.294 137.205 175.428 136.59 175.697 136.034C175.966 135.478 176.345 135.028 176.827 134.685C177.245 134.383 177.748 134.173 178.337 134.056C178.926 133.94 179.75 133.881 180.808 133.881H184.633H184.632ZM166.549 135.691L166.449 135.299L166.349 135.691L163.63 142.184H169.244L166.549 135.691ZM159.371 148.347L165.639 133.881H167.255L173.475 148.347H171.91L169.819 143.479H163.054L160.946 148.347H159.371H159.371ZM147.239 148.347V133.881H148.694V140.251H156.212V133.881H157.687V148.347H156.212V141.546H148.694V148.347H147.239ZM133.822 148.347V133.881H135.276V140.251H142.794V133.881H144.27V148.347H142.794V141.546H135.276V148.347H133.822ZM123.777 135.018C122.678 135.018 121.659 135.296 120.707 135.852C119.76 136.408 119.005 137.16 118.443 138.101C117.882 139.042 117.599 140.061 117.599 141.154C117.599 142.236 117.882 143.242 118.443 144.172C119.005 145.106 119.767 145.844 120.728 146.39C121.689 146.936 122.727 147.211 123.836 147.211C124.677 147.211 125.472 147.056 126.224 146.744C126.975 146.431 127.636 145.992 128.208 145.425C128.78 144.859 129.225 144.203 129.539 143.458C129.855 142.713 130.014 141.927 130.014 141.096C130.014 140.014 129.732 139.007 129.167 138.07C128.602 137.136 127.84 136.391 126.878 135.842C125.921 135.292 124.887 135.018 123.777 135.018L123.777 135.018ZM123.657 133.631C125.076 133.631 126.389 133.964 127.592 134.63C128.798 135.299 129.746 136.202 130.439 137.342C131.138 138.489 131.489 139.739 131.489 141.095C131.489 142.449 131.141 143.702 130.449 144.855C129.763 146.002 128.833 146.912 127.654 147.581C126.475 148.251 125.198 148.587 123.819 148.587C122.451 148.587 121.176 148.254 119.991 147.588C118.806 146.919 117.868 146.016 117.179 144.872C116.49 143.729 116.145 142.49 116.145 141.154C116.145 139.831 116.49 138.592 117.176 137.428C117.861 136.264 118.782 135.341 119.932 134.657C121.09 133.974 122.33 133.631 123.657 133.631L123.657 133.631ZM113.785 148.347H112.331V136.024L112.231 136.295L104.196 148.347H102.741V133.881H104.196V146.205L104.295 145.933L112.331 133.881H113.785V148.347ZM98.8032 148.347H88.8V133.881H90.2543V147.032H97.7724V133.881H99.2478V147.053H100.236V151.335H98.8133L98.8033 148.347H98.8032ZM85.8232 148.347H84.369V136.024L84.2686 136.295L76.2335 148.347H74.7793V133.881H76.2335V146.205L76.3329 145.933L84.369 133.881H85.8232V148.347ZM68.3872 148.347V135.196H65.0653V133.881H73.1424V135.196H69.8415V148.347H68.3871H68.3872ZM64.0245 137.593H62.4087C61.9921 137.037 61.5957 136.618 61.2204 136.336C60.6794 135.921 60.0763 135.598 59.4009 135.371C58.7355 135.148 58.06 135.038 57.3746 135.038C56.2957 135.038 55.29 135.317 54.3496 135.869C53.4122 136.422 52.6645 137.164 52.1095 138.091C51.5545 139.021 51.2755 140.021 51.2755 141.096C51.2755 142.174 51.5585 143.187 52.1235 144.131C52.6815 145.072 53.4322 145.82 54.3736 146.376C55.3241 146.932 56.3438 147.211 57.4327 147.211C58.3772 147.211 59.2905 146.987 60.1797 146.538C60.6655 146.287 61.055 146.036 61.355 145.782C61.654 145.528 62.0234 145.127 62.461 144.574H64.0668C63.7566 145.113 63.4949 145.515 63.2769 145.782C63.0632 146.05 62.7842 146.342 62.4399 146.658C60.9546 147.945 59.2635 148.587 57.3716 148.587C55.9928 148.587 54.7252 148.254 53.5669 147.592C52.4098 146.929 51.4964 146.019 50.8281 144.866C50.1556 143.712 49.8213 142.455 49.8213 141.096C49.8213 139.74 50.1556 138.492 50.8281 137.352C51.4964 136.213 52.4098 135.313 53.56 134.654C54.7151 133.991 55.9797 133.662 57.3536 133.662C58.8671 133.662 60.248 134.056 61.5027 134.85C62.2614 135.358 62.8846 135.914 63.3704 136.518C63.6052 136.807 63.825 137.164 64.0247 137.593L64.0245 137.593ZM39.9084 148.347V133.881H47.854V135.196H41.3627V140.271H47.6302V141.586H41.3627V147.032H47.854V148.347H39.9084V148.347ZM30.095 140.068H31.6697C32.4375 140.068 33.0095 140.034 33.396 139.969C33.7854 139.907 34.1266 139.794 34.4156 139.625C34.7779 139.43 35.063 139.152 35.2737 138.791C35.4875 138.427 35.5939 138.043 35.5939 137.631C35.5939 137.243 35.4905 136.865 35.2767 136.494C35.0669 136.127 34.7839 135.838 34.4327 135.629C34.2259 135.502 33.9851 135.399 33.709 135.317C33.4782 135.258 33.2684 135.22 33.0788 135.21C32.886 135.2 32.4545 135.196 31.7901 135.196H30.095V140.068ZM30.095 147.032H31.8895C32.6924 147.032 33.2091 147.025 33.4441 147.011C34.0362 146.963 34.5399 146.826 34.9495 146.599C35.3871 146.369 35.7283 146.043 35.9802 145.614C36.228 145.181 36.3526 144.721 36.3526 144.224C36.3526 143.836 36.2794 143.465 36.1388 143.121C35.9973 142.775 35.7905 142.479 35.5146 142.229C35.2455 141.982 34.9254 141.793 34.557 141.666C34.2329 141.552 33.8716 141.477 33.4711 141.439C33.0717 141.401 32.4545 141.384 31.6275 141.384H30.0948V147.032L30.095 147.032ZM28.6407 148.347V133.881H32.041C33.5303 133.881 34.6364 134.108 35.3631 134.565C35.8799 134.887 36.2934 135.337 36.5965 135.914C36.9036 136.498 37.0581 137.105 37.0581 137.734C37.0581 138.266 36.9348 138.767 36.6867 139.244C36.5593 139.505 36.3586 139.756 36.0906 139.996C35.7523 140.264 35.2356 140.473 34.536 140.621C35.2155 140.7 35.7455 140.851 36.1318 141.074C36.4859 141.266 36.7932 141.524 37.0481 141.836C37.313 142.159 37.5097 142.523 37.6443 142.926C37.7786 143.326 37.8479 143.753 37.8479 144.203C37.8479 144.673 37.7757 145.116 37.6341 145.535C37.4927 145.954 37.2889 146.339 37.0209 146.689C36.7519 147.029 36.4278 147.32 36.0484 147.561C35.5868 147.856 35.0739 148.062 34.5159 148.175C33.9568 148.289 33.141 148.347 32.0619 148.347H28.6406L28.6407 148.347ZM15.2232 148.347V133.881H16.6774V140.25H24.1957V133.881H25.6709V148.347H24.1957V141.546H16.6774V148.347H15.2232ZM12.2464 148.347H10.7922V136.024L10.6917 136.295L2.65674 148.347H1.20251V133.881H2.65674V146.205L2.75611 145.933L10.7922 133.881H12.2464V148.347ZM45.6853 76.1703L45.8217 76.0332V43.8321L67.6054 29.3607V76.0332H71.2366V31.7719L74.8686 34.1852V76.0332H78.4977V36.5953L82.1289 39.0076V76.0332H85.759V41.4198L89.391 43.8321V76.0332H92.7402V14.4712L114.525 3.05176e-05V76.0333H118.157V2.41223L121.788 4.82453V76.0334H125.417V7.23684L129.046 9.64707V76.0334H132.68V12.0594L136.311 14.4715V76.0334H136.586L136.311 77.1836L45.6852 76.9105V76.1705L45.6853 76.1703ZM186.327 91.0296L186.5 94.667H186.062C185.98 94.027 185.864 93.57 185.719 93.2949C185.481 92.8528 185.166 92.5268 184.773 92.3167C184.378 92.1067 183.859 92.0027 183.217 92.0027L181.025 92.0017V103.849C181.025 104.801 181.128 105.396 181.335 105.632C181.625 105.953 182.074 106.113 182.678 106.113H183.218V106.536H176.62V106.113H177.17C177.827 106.113 178.294 105.915 178.57 105.518C178.738 105.274 178.823 104.719 178.823 103.849V92.0017H176.952C176.225 92.0017 175.71 92.0556 175.403 92.1627C175.004 92.3068 174.664 92.5848 174.381 92.9967C174.099 93.4079 173.929 93.9669 173.876 94.6679L173.441 94.6669L173.624 91.0295H186.327L186.327 91.0296ZM171.204 90.6745L171.56 95.9471H171.204C170.729 94.3689 170.052 93.2339 169.171 92.5398C168.293 91.8458 167.236 91.4997 166.005 91.4997C164.972 91.4997 164.039 91.7617 163.206 92.2839C162.371 92.8049 161.714 93.6369 161.236 94.78C160.758 95.9241 160.52 97.3462 160.52 99.0465C160.52 100.449 160.745 101.665 161.197 102.694C161.648 103.724 162.328 104.513 163.233 105.061C164.14 105.61 165.175 105.885 166.337 105.885C167.348 105.885 168.238 105.67 169.012 105.238C169.785 104.807 170.634 103.952 171.559 102.672L171.915 102.9C171.135 104.278 170.224 105.29 169.185 105.93C168.143 106.57 166.907 106.89 165.477 106.89C162.899 106.89 160.903 105.938 159.487 104.032C158.432 102.614 157.904 100.946 157.904 99.0236C157.904 97.4755 158.251 96.0554 158.947 94.7603C159.644 93.4641 160.601 92.4591 161.822 91.745C163.043 91.0329 164.376 90.6758 165.821 90.6758C166.945 90.6747 168.054 90.9498 169.149 91.4999C169.471 91.6669 169.699 91.7509 169.838 91.7509C170.045 91.7509 170.224 91.6789 170.376 91.5329C170.575 91.3278 170.718 91.0429 170.8 90.6758L171.204 90.6747L171.204 90.6745ZM152.004 101.345H145.981L144.925 103.791C144.664 104.396 144.534 104.844 144.534 105.142C144.534 105.376 144.647 105.585 144.873 105.763C145.098 105.944 145.585 106.06 146.336 106.113L146.337 106.536H141.437V106.113C142.088 105.999 142.507 105.849 142.698 105.666C143.088 105.301 143.521 104.558 143.995 103.437L149.468 90.6744H149.871L155.287 103.574C155.723 104.611 156.119 105.284 156.475 105.593C156.831 105.9 157.326 106.075 157.96 106.113V106.536H151.822V106.113C152.44 106.083 152.86 105.98 153.077 105.804C153.296 105.63 153.405 105.416 153.405 105.164C153.405 104.828 153.252 104.299 152.946 103.575L152.004 101.344L152.004 101.345ZM151.683 100.497L149.045 94.232L146.337 100.497H151.683ZM136.009 99.2744V103.791C136.009 104.767 136.116 105.373 136.329 105.61C136.621 105.946 137.061 106.113 137.649 106.113H138.246V106.536H131.579V106.113H132.165C132.821 106.113 133.293 105.899 133.575 105.473C133.728 105.237 133.806 104.675 133.806 103.791V93.7738C133.806 92.7988 133.701 92.1927 133.495 91.9567C133.197 91.6208 132.754 91.4527 132.165 91.4527H131.579V91.0297H137.282C138.675 91.0297 139.773 91.1737 140.575 91.4588C141.379 91.7449 142.055 92.2288 142.607 92.905C143.157 93.586 143.432 94.388 143.432 95.3192C143.432 96.5843 143.013 97.6134 142.177 98.4065C141.338 99.1985 140.156 99.5946 138.624 99.5946C138.251 99.5946 137.844 99.5686 137.408 99.5165C136.972 99.4606 136.506 99.3825 136.008 99.2745L136.009 99.2744ZM136.009 98.6214C136.414 98.6984 136.772 98.7564 137.087 98.7954C137.401 98.8324 137.668 98.8514 137.889 98.8514C138.685 98.8514 139.372 98.5454 139.95 97.9323C140.527 97.3162 140.817 96.5242 140.817 95.548C140.817 94.876 140.678 94.252 140.404 93.6779C140.13 93.1028 139.739 92.6718 139.232 92.3848C138.728 92.1008 138.154 91.9567 137.512 91.9567C137.123 91.9567 136.621 92.0307 136.008 92.1728L136.009 98.6214H136.009ZM130.432 91.0297L130.603 94.6671H130.167C130.082 94.0271 129.969 93.5701 129.822 93.295C129.586 92.8529 129.269 92.5269 128.877 92.3168C128.481 92.1068 127.965 92.0028 127.322 92.0028L125.13 92.0018V103.849C125.13 104.801 125.234 105.396 125.44 105.632C125.73 105.953 126.178 106.113 126.783 106.113H127.322V106.536H120.723V106.113H121.274C121.933 106.113 122.399 105.915 122.673 105.518C122.843 105.274 122.927 104.719 122.927 103.849V92.0018H121.057C120.33 92.0018 119.812 92.0557 119.507 92.1628C119.11 92.3069 118.769 92.5849 118.485 92.9968C118.202 93.408 118.034 93.967 117.98 94.668L117.546 94.667L117.729 91.0296H130.432L130.432 91.0297ZM104.084 100.42H110.017V102.144H104.084V100.42ZM89.0057 99.2745V103.791C89.0057 104.767 89.1131 105.373 89.3269 105.61C89.618 105.946 90.0585 106.113 90.6476 106.113H91.2428V106.536H84.5767V106.113H85.1618C85.8192 106.113 86.2899 105.899 86.572 105.473C86.7266 105.237 86.8028 104.675 86.8028 103.791V93.774C86.8028 92.7989 86.6994 92.1928 86.4926 91.9568C86.1945 91.6209 85.752 91.4528 85.1618 91.4528H84.5767V91.0298H90.2793C91.6722 91.0298 92.7703 91.1738 93.5721 91.4589C94.3761 91.745 95.0534 92.2289 95.6045 92.9051C96.1545 93.5861 96.4304 94.3881 96.4304 95.3193C96.4304 96.5844 96.01 97.6135 95.1738 98.4066C94.3359 99.1986 93.1527 99.5947 91.6221 99.5947C91.2477 99.5947 90.8413 99.5687 90.4067 99.5166C89.9691 99.4607 89.5034 99.3826 89.0057 99.2746V99.2745ZM89.0057 98.6215C89.4112 98.6986 89.7694 98.7565 90.0845 98.7955C90.3986 98.8325 90.6656 98.8515 90.8874 98.8515C91.6833 98.8515 92.3688 98.5455 92.9479 97.9324C93.5239 97.3163 93.8141 96.5243 93.8141 95.5481C93.8141 94.8761 93.6755 94.2521 93.3996 93.678C93.1256 93.1029 92.7351 92.6719 92.2294 92.3849C91.7255 92.1009 91.1514 91.9568 90.5091 91.9568C90.1197 91.9568 89.618 92.0308 89.0058 92.1729V98.6215H89.0057ZM79.3087 93.5909C79.3087 92.6609 79.1581 92.0728 78.856 91.8259C78.5539 91.5789 77.9446 91.4528 77.0254 91.4528L77.0265 91.0298H83.7618V91.4528C82.7983 91.4839 82.182 91.6368 81.914 91.9099C81.6471 92.1849 81.5117 92.8329 81.5117 93.856V103.711C81.5117 104.733 81.646 105.381 81.914 105.655C82.182 105.93 82.7983 106.083 83.7618 106.113V106.536H77.0265V106.113C78.013 106.083 78.6402 105.928 78.9073 105.649C79.1763 105.371 79.3088 104.725 79.3088 103.712V94.8162L72.0906 104.032C72.0987 104.695 72.1428 105.138 72.2241 105.365C72.3044 105.59 72.4901 105.766 72.7852 105.894C73.0803 106.025 73.6031 106.097 74.3518 106.113V106.536H67.6386V106.113C68.6031 106.083 69.2183 105.93 69.4872 105.655C69.7552 105.381 69.8877 104.733 69.8877 103.712V93.856C69.8877 92.8329 69.7552 92.1849 69.4872 91.9099C69.2192 91.6368 68.6031 91.4848 67.6386 91.4528V91.0298H74.3518V91.4528C73.3804 91.4839 72.7611 91.6368 72.494 91.9099C72.2261 92.1849 72.0906 92.8329 72.0906 93.856V102.784L79.3088 93.5909H79.3087ZM61.2925 106.536H54.5813V106.113C55.4594 106.097 56.0506 105.98 56.3526 105.758C56.6557 105.538 56.8132 105.081 56.8293 104.386C54.2439 104.386 52.3772 103.846 51.234 102.764C50.09 101.681 49.5199 100.327 49.5199 98.7036C49.5199 97.4834 49.8571 96.4433 50.5355 95.5822C51.212 94.7181 52.0469 94.1221 53.0415 93.793C54.0371 93.46 55.2997 93.295 56.8292 93.295C56.8131 92.6549 56.7137 92.2319 56.5311 92.0258C56.3464 91.8198 56.1427 91.6759 55.9169 91.5967C55.6911 91.5147 55.2444 91.4687 54.58 91.4527L54.5811 91.0297H61.2923V91.4527C60.3901 91.4838 59.7979 91.6197 59.5138 91.8588C59.2309 92.1008 59.0702 92.5778 59.032 93.2949C60.6851 93.2949 61.9848 93.4728 62.9341 93.8319C63.8826 94.1899 64.6895 94.784 65.3549 95.615C66.0214 96.447 66.3525 97.4762 66.3525 98.7033C66.3536 100.282 65.7985 101.623 64.6895 102.729C63.5795 103.834 61.6948 104.386 59.032 104.386C59.0551 105.071 59.2137 105.529 59.5099 105.754C59.8028 105.977 60.398 106.097 61.2922 106.113V106.536L61.2925 106.536ZM56.8295 103.541V94.14C55.6431 94.14 54.7288 94.283 54.0875 94.5711C53.4432 94.8551 52.9052 95.3421 52.4727 96.0272C52.0411 96.7143 51.8264 97.6014 51.8264 98.6925C51.8264 99.8875 52.0803 100.883 52.5891 101.676C53.0969 102.469 53.6971 102.978 54.3845 103.203C55.073 103.427 55.888 103.542 56.8295 103.541V103.541ZM59.0323 103.541C60.1575 103.541 61.0528 103.395 61.7242 103.1C62.3926 102.806 62.9477 102.279 63.3872 101.517C63.8268 100.753 64.0465 99.8116 64.0465 98.6926C64.0475 97.6405 63.8247 96.7503 63.3811 96.0213C62.9375 95.2932 62.3815 94.7991 61.713 94.5351C61.0415 94.2721 60.1484 94.14 59.0322 94.14V103.541H59.0323ZM43.7702 91.8779H36.5523V103.711C36.5523 104.733 36.6837 105.381 36.9486 105.655C37.2116 105.93 37.8309 106.083 38.8024 106.113V106.536H32.1002V106.113C33.0646 106.083 33.6799 105.93 33.9479 105.655C34.2148 105.381 34.3494 104.733 34.3494 103.712V93.856C34.3494 92.8329 34.2149 92.1849 33.9479 91.9099C33.6799 91.6368 33.0647 91.4848 32.0992 91.4528L32.1003 91.0298H48.2235V91.4528C47.2591 91.4839 46.6437 91.6368 46.3758 91.9099C46.1078 92.1849 45.9733 92.8329 45.9733 93.856V103.711C45.9733 104.733 46.1078 105.381 46.3758 105.655C46.6437 105.93 47.259 106.083 48.2235 106.113V106.536H41.5333V106.113C42.4889 106.083 43.1011 105.932 43.3689 105.662C43.638 105.391 43.7704 104.741 43.7704 103.712V91.8778L43.7702 91.8779ZM25.4562 101.345H19.4304L18.3755 103.791C18.1167 104.396 17.9862 104.844 17.9862 105.142C17.9862 105.376 18.0976 105.585 18.3234 105.763C18.5491 105.944 19.037 106.06 19.7877 106.113V106.536H14.8869V106.113C15.5373 105.999 15.9588 105.849 16.1505 105.666C16.5399 105.301 16.9725 104.558 17.4452 103.437L22.9199 90.6746H23.3204L28.7369 103.574C29.1745 104.611 29.5688 105.284 29.9262 105.593C30.2804 105.9 30.7772 106.075 31.4115 106.113V106.536H25.2713V106.113C25.8926 106.083 26.3101 105.98 26.5299 105.804C26.7456 105.63 26.855 105.416 26.855 105.164C26.855 104.828 26.7034 104.299 26.3964 103.575L25.456 101.345L25.4562 101.345ZM25.136 100.497L22.4954 94.2322L19.7877 100.497H25.136ZM14.348 90.6747L14.7042 95.9474H14.348C13.8732 94.3691 13.1969 93.2341 12.3157 92.54C11.4375 91.8461 10.3807 91.4999 9.14927 91.4999C8.11758 91.4999 7.18317 91.7619 6.3502 92.2841C5.51614 92.8051 4.85986 93.6371 4.38213 94.7802C3.90244 95.9243 3.66445 97.3464 3.66445 99.0467C3.66445 100.449 3.89022 101.665 4.34188 102.694C4.79245 103.724 5.47087 104.513 6.37812 105.061C7.28548 105.61 8.31914 105.885 9.48139 105.885C10.4922 105.885 11.3843 105.67 12.156 105.238C12.9288 104.807 13.7779 103.952 14.7033 102.672L15.0596 102.9C14.2797 104.278 13.3694 105.291 12.3287 105.931C11.2879 106.571 10.0514 106.891 8.62235 106.891C6.04502 106.891 4.04685 105.939 2.63166 104.032C1.57585 102.614 1.04806 100.946 1.04806 99.0238C1.04806 97.4757 1.39523 96.0556 2.09274 94.7605C2.78926 93.4643 3.7457 92.4593 4.96609 91.7452C6.18746 91.0331 7.52031 90.6761 8.96658 90.6761C10.0915 90.675 11.2006 90.9501 12.2945 91.5001C12.6158 91.6672 12.8445 91.7511 12.982 91.7511C13.1888 91.7511 13.3695 91.6791 13.5209 91.5332C13.7197 91.3281 13.8622 91.0431 13.9454 90.6761L14.3479 90.675L14.348 90.6747Z" fill="#065799"/>
</svg>
