<svg width="21" height="20" viewBox="0 0 21 20" fill="none" xmlns="http://www.w3.org/2000/svg">
<path d="M17.333 7.25C17.333 7.08333 17.2497 7 17.1663 6.91667L12.1663 1.91667C12.083 1.83333 11.9997 1.83333 11.9163 1.75H11.833C11.833 1.75 11.7497 1.66667 11.6663 1.66667H6.58301C5.16634 1.66667 4.08301 2.75 4.08301 4.16667V15.8333C4.08301 17.25 5.16634 18.3333 6.58301 18.3333H14.9163C16.333 18.3333 17.4163 17.25 17.4163 15.8333V7.5C17.4163 7.5 17.4163 7.5 17.4163 7.41667C17.4163 7.33333 17.4163 7.33333 17.333 7.25ZM12.4163 4.5L14.583 6.66667H13.2497C12.7497 6.66667 12.4163 6.33333 12.4163 5.83333V4.5ZM15.7497 15.8333C15.7497 16.3333 15.4163 16.6667 14.9163 16.6667H6.58301C6.08301 16.6667 5.74967 16.3333 5.74967 15.8333V4.16667C5.74967 3.66667 6.08301 3.33333 6.58301 3.33333H10.7497V5.83333C10.7497 7.25 11.833 8.33333 13.2497 8.33333H15.7497V15.8333Z" fill="#04579B"/>
<path d="M6.75 10.5833C7 10.5 7.25 10.5 7.75 10.5C8.16667 10.5 8.5 10.5833 8.75 10.8333C8.91667 11.0833 9.08333 11.4167 9.08333 11.8333C9.08333 12.25 9 12.5833 8.75 12.8333C8.5 13.1667 8.08333 13.3333 7.66667 13.3333C7.58333 13.3333 7.5 13.3333 7.41667 13.3333V14.8333H6.75V10.5833ZM7.41667 12.5C7.5 12.5 7.58333 12.5 7.66667 12.5C8.08333 12.5 8.25 12.25 8.25 11.8333C8.25 11.4167 8.08333 11.25 7.66667 11.25C7.5 11.25 7.41667 11.25 7.33333 11.25V12.5H7.41667Z" fill="#04579B"/>
<path d="M9.5 10.5833C9.75 10.5 10.0833 10.5 10.5 10.5C11.0833 10.5 11.5 10.6667 11.8333 10.9167C12.1667 11.25 12.4167 11.75 12.4167 12.5C12.4167 13.3333 12.1667 13.9167 11.9167 14.25C11.5833 14.5833 11.0833 14.8333 10.4167 14.8333C10 14.8333 9.75 14.8333 9.58333 14.75V10.5833H9.5ZM10.25 14.0833C10.3333 14.0833 10.4167 14.0833 10.5 14.0833C11.1667 14.0833 11.5833 13.5833 11.5833 12.5833C11.5833 11.6667 11.1667 11.25 10.5833 11.25C10.4167 11.25 10.3333 11.25 10.25 11.25V14.0833Z" fill="#04579B"/>
<path d="M12.833 10.5833H14.833V11.3333H13.583V12.3333H14.7497V13.0833H13.583V14.8333H12.833V10.5833Z" fill="#04579B"/>
</svg>
