<svg width="15" height="15" viewBox="0 0 15 15" fill="none" xmlns="http://www.w3.org/2000/svg">
<g clip-path="url(#clip0_2_19)">
<path d="M13.9601 10.7746L12.0064 8.82085C11.3086 8.12308 10.1224 8.40222 9.84328 9.30928C9.63395 9.9373 8.93619 10.2862 8.3082 10.1466C6.91267 9.79772 5.0287 7.98353 4.67982 6.51822C4.47049 5.89021 4.88915 5.19244 5.51714 4.98314C6.42423 4.70403 6.70334 3.51783 6.00557 2.82007L4.05183 0.866327C3.49362 0.377891 2.6563 0.377891 2.16787 0.866327L0.842112 2.19208C-0.483641 3.58761 0.981665 7.28576 4.26116 10.5653C7.54066 13.8448 11.2388 15.3799 12.6343 13.9843L13.9601 12.6586C14.4486 12.1003 14.4486 11.263 13.9601 10.7746Z" fill="white"/>
</g>
<defs>
<clipPath id="clip0_2_19">
<rect width="14" height="14" fill="white" transform="translate(0.341187 0.5)"/>
</clipPath>
</defs>
</svg>
