<svg width="24" height="30" viewBox="0 0 24 30" fill="none" xmlns="http://www.w3.org/2000/svg">
<path d="M12 0C5.79492 0 0.75 5.04492 0.75 11.25C0.75 19.5469 11.127 29.4141 11.5723 29.8301C11.6953 29.9414 11.8477 30 12 30C12.1523 30 12.3105 29.9414 12.4277 29.8301C12.873 29.4141 23.25 19.5469 23.25 11.25C23.25 5.04492 18.2051 0 12 0ZM12 17.502C8.55469 17.502 5.74805 14.6953 5.74805 11.25C5.74805 7.80469 8.55469 4.99805 12 4.99805C15.4453 4.99805 18.252 7.80469 18.252 11.25C18.252 14.6953 15.4453 17.502 12 17.502Z" fill="#065799"/>
</svg>
