<svg width="137" height="140" viewBox="0 0 137 140" fill="none" xmlns="http://www.w3.org/2000/svg">
<path d="M9.44296 55.2414C9.59776 54.4619 9.54616 53.7343 9.18495 53.1107C8.82375 52.4871 8.30774 52.0714 7.63693 51.9155C7.37893 51.8635 7.12092 51.8635 6.86292 51.8635C6.60491 51.9155 6.39851 51.9674 6.19211 52.0194C6.03731 52.0714 5.8309 52.1753 5.6761 52.3312C5.5213 52.4351 5.4181 52.5391 5.3665 52.591C5.3149 52.643 5.26329 52.695 5.26329 52.695L5.16009 52.4871C5.05689 52.3312 4.90209 52.1233 4.64409 51.9155C4.38608 51.7076 4.07648 51.5517 3.76687 51.4997C3.19926 51.3438 2.63166 51.4997 2.06405 51.8635C1.49644 52.2273 1.13523 52.7989 0.980432 53.4745L0.206421 56.9563L8.66894 58.9311L9.44296 55.2414ZM7.79173 57.3201L5.00529 56.6445L5.5213 54.3579C5.6245 53.9422 5.8309 53.6304 6.14051 53.4745C6.45011 53.2666 6.81132 53.2146 7.22412 53.3186C7.63693 53.4225 7.89493 53.6304 8.10134 53.9422C8.30774 54.254 8.35934 54.6178 8.25614 55.0335L7.79173 57.3201ZM2.11565 53.7343C2.16725 53.4225 2.37365 53.1627 2.63166 53.0068C2.88966 52.8509 3.19926 52.7989 3.50887 52.8509C3.81847 52.9028 4.07648 53.1107 4.23128 53.3705C4.38608 53.6304 4.43768 53.9422 4.38608 54.254L3.92167 56.3847L1.65124 55.865L2.11565 53.7343ZM13.4162 43.7046L5.3665 40.5346L4.95369 41.6259L8.97855 48.4856L3.14766 46.1471L2.63166 47.4463L10.6814 50.6682L11.0942 49.5769L7.06932 42.7172L12.9002 45.0038L13.4162 43.7046ZM12.9002 41.9897L15.5834 43.5487L16.2543 42.3535L14.6546 41.4181L17.5959 36.2213L19.1955 37.1567L19.8663 35.9615L17.1831 34.4025L16.6671 35.3379L10.217 31.5962L7.43053 36.5331L9.70096 37.8323C10.2686 38.1441 10.7846 38.5079 11.1974 38.8717C11.6618 39.2354 11.9714 39.5992 12.2294 39.859C12.4358 40.1189 12.6422 40.4307 12.797 40.7425C12.9518 41.0543 13.055 41.2102 13.1066 41.3141C13.1582 41.4181 13.1582 41.47 13.1582 41.522L12.9002 41.9897ZM10.3718 36.6371L9.18495 35.9615L10.6298 33.4151L15.9963 36.5331L13.829 40.3787L13.7774 40.1708C13.7258 40.0149 13.6226 39.8071 13.4678 39.5472C13.313 39.2874 13.1066 39.0276 12.9002 38.7158C12.6938 38.404 12.3326 38.0922 11.8682 37.6764C11.4554 37.3126 10.9394 36.9489 10.3718 36.6371ZM19.2471 31.96L17.1315 30.2971L19.4535 27.2829L18.4731 26.5034L16.1511 29.5175L14.345 28.1144L17.2863 24.3208L16.3059 23.5413L12.539 28.3743L19.3503 33.7789L23.2204 28.842L22.2915 28.0625L19.2471 31.96ZM22.2399 23.8011C21.6207 23.1256 21.3111 22.398 21.3627 21.5146C21.3627 20.6311 21.7239 19.8516 22.3947 19.228C23.0656 18.6044 23.788 18.2926 24.7168 18.3446C25.594 18.3446 26.368 18.7083 26.9872 19.3839C27.6064 20.0595 27.916 20.787 27.8644 21.7224C27.8644 22.6059 27.5032 23.3854 26.8324 24.009C26.1616 24.6326 25.3876 24.9444 24.5104 24.8924C23.6332 24.7885 22.8591 24.4247 22.2399 23.8011ZM21.2595 24.7365C22.1367 25.62 23.1688 26.0877 24.4072 26.1397C25.6456 26.1397 26.7292 25.7239 27.658 24.8405C28.5868 23.957 29.1028 22.8657 29.1028 21.6185C29.1544 20.3713 28.7416 19.28 27.8644 18.3965C26.9872 17.5131 25.9552 17.0454 24.7168 16.9934C23.4784 16.9934 22.3947 17.4092 21.4659 18.2926C20.5371 19.176 20.0211 20.2674 20.0211 21.5146C19.9695 22.7618 20.3823 23.8011 21.2595 24.7365ZM33.0761 18.6564L31.5281 16.2659L33.3857 15.0706C33.7469 14.8628 34.0565 14.7588 34.4693 14.8628C34.8305 14.9667 35.1401 15.1746 35.3465 15.4864C35.5529 15.8501 35.6561 16.2139 35.5529 16.5777C35.4497 16.9414 35.2433 17.2533 34.9337 17.4611L33.0761 18.6564ZM35.6045 18.5005C36.2753 18.0847 36.6881 17.4611 36.8946 16.7855C37.0494 16.058 36.9462 15.3824 36.5333 14.7588C36.1205 14.1352 35.5529 13.7195 34.8305 13.5636C34.1081 13.4077 33.3857 13.5636 32.7149 13.9793L30.8573 15.1746L29.722 13.4077L33.3857 11.0691L32.7149 10.0298L27.916 13.1478L32.6117 20.4752L35.6045 18.5005ZM41.3838 9.97782L41.487 9.87389C41.5386 9.82192 41.5902 9.66602 41.6934 9.56208C41.745 9.40618 41.7966 9.25028 41.8482 9.09438C41.8998 8.93848 41.8998 8.67864 41.8482 8.47077C41.7966 8.21093 41.745 8.00306 41.6418 7.74323C41.3322 7.17159 40.8678 6.80782 40.197 6.65191C39.5262 6.49601 38.8038 6.65191 37.9782 7.06765C37.6686 7.22355 37.359 7.43142 37.101 7.69126C36.843 7.9511 36.6365 8.15897 36.4817 8.36684C36.3269 8.57471 36.2237 8.78257 36.1205 8.99044C36.0173 9.19831 35.9657 9.35422 35.9141 9.45815C35.9141 9.56209 35.8625 9.61405 35.8625 9.61405L37.0494 9.97782L37.1526 9.66602C37.2558 9.45815 37.4106 9.19831 37.6686 8.88651C37.9266 8.57471 38.1846 8.36684 38.4942 8.15897C38.9586 7.9511 39.3198 7.84716 39.681 7.89913C40.0422 7.9511 40.3002 8.15897 40.455 8.4188C40.6098 8.73061 40.6098 9.04241 40.455 9.35422C40.3002 9.71799 39.9906 9.97782 39.5778 10.1857L38.649 10.6534L39.2166 11.7447L40.1454 11.277C40.713 11.0172 41.1774 10.9132 41.6418 10.9652C42.0546 11.0691 42.3642 11.277 42.5706 11.6408C42.7254 12.0045 42.7254 12.3683 42.5706 12.7841C42.3642 13.1998 42.003 13.5636 41.487 13.8234C41.229 13.9793 40.971 14.0313 40.6614 14.1352C40.3518 14.1872 40.1454 14.2391 39.939 14.2391C39.7326 14.2391 39.5262 14.2391 39.3198 14.1872C39.1134 14.1352 39.0102 14.1352 38.907 14.0832C38.8554 14.0832 38.8038 14.0313 38.7522 14.0313L38.391 15.2265L38.5974 15.2785C38.7006 15.3305 38.907 15.3824 39.1134 15.3824C39.3714 15.4344 39.6294 15.4344 39.8874 15.4344C40.1454 15.4344 40.5066 15.3824 40.8678 15.3305C41.229 15.2265 41.6418 15.1226 42.003 14.9147C42.9318 14.447 43.4994 13.8234 43.8091 13.0959C44.1187 12.3683 44.1187 11.6927 43.7575 11.0172C43.6026 10.7573 43.4478 10.5495 43.2414 10.3416C43.035 10.1857 42.8286 10.0298 42.6222 9.97782C42.4158 9.92586 42.2094 9.87389 42.003 9.87389C41.7966 9.87389 41.6418 9.87389 41.5386 9.87389C41.487 9.97782 41.3838 9.97782 41.3838 9.97782ZM46.3891 8.107C46.1311 7.22355 46.2343 6.39208 46.6471 5.66453C47.0599 4.88502 47.7307 4.36535 48.6079 4.15748C49.4851 3.89764 50.3107 4.00158 51.0848 4.41732C51.8588 4.83306 52.3748 5.50863 52.6328 6.39208C52.8908 7.27552 52.7876 8.107 52.3748 8.88651C51.962 9.66602 51.2912 10.1857 50.4139 10.4455C49.5367 10.7054 48.7111 10.6014 47.9371 10.1857C47.1115 9.66602 46.5955 8.99044 46.3891 8.107ZM45.0475 8.47077C45.4087 9.66602 46.0795 10.6014 47.1631 11.1731C48.2467 11.7447 49.4335 11.9006 50.672 11.5368C51.9104 11.1731 52.8392 10.4455 53.4584 9.40618C54.0776 8.31487 54.1808 7.17159 53.8712 5.97634C53.51 4.78109 52.8392 3.84568 51.7556 3.27404C50.672 2.7024 49.5367 2.54649 48.2467 2.91027C47.0083 3.27404 46.0795 4.00158 45.4603 5.04093C44.8411 6.13224 44.7379 7.27552 45.0475 8.47077ZM55.9352 1.09141L57.0188 9.76995L58.3605 9.61405L57.9477 6.49601L60.0117 6.23618C60.8373 6.13224 61.5081 5.76847 61.9725 5.14486C62.4369 4.52125 62.6433 3.84568 62.5401 3.06617C62.4369 2.28666 62.0757 1.66305 61.4565 1.19534C60.8889 0.727638 60.1665 0.519768 59.3409 0.623703L55.9352 1.09141ZM59.4957 1.87092C59.9085 1.81895 60.3213 1.92289 60.6309 2.18272C60.9921 2.44256 61.1469 2.80633 61.1985 3.22207C61.2501 3.63781 61.1469 4.05355 60.8889 4.36535C60.6309 4.67716 60.2697 4.88502 59.8569 4.93699L57.7929 5.19683L57.38 2.07879L59.4957 1.87092ZM68.9902 4.26142C69.0418 3.37797 69.403 2.59846 70.0738 2.02682C70.7447 1.45518 71.5187 1.19534 72.4475 1.24731C73.3247 1.29928 74.0987 1.66305 74.6663 2.33862C75.2339 3.0142 75.4919 3.79371 75.4403 4.67716C75.3887 5.5606 75.0275 6.34011 74.3567 6.91175C73.6859 7.48339 72.9119 7.74323 71.9831 7.69126C71.1059 7.63929 70.3318 7.27552 69.7642 6.59995C69.145 5.92437 68.9386 5.14486 68.9902 4.26142ZM67.6486 4.15748C67.5454 5.4047 67.9066 6.49601 68.7322 7.43142C69.5578 8.36684 70.5898 8.88651 71.8799 8.99044C73.1699 9.09438 74.3051 8.73061 75.2339 7.9511C76.1627 7.17159 76.6787 6.13224 76.7819 4.88502C76.8851 3.63781 76.5239 2.54649 75.6983 1.61108C74.8727 0.67567 73.8407 0.155997 72.5507 0.0520624C71.2607 -0.0518723 70.1254 0.311899 69.1966 1.09141C68.2678 1.87092 67.7002 2.91027 67.6486 4.15748ZM89.9401 3.37797L88.6501 3.0142L87.6697 6.54798L83.5416 5.35273L84.522 1.81895L83.232 1.45518L80.8584 9.87389L82.1484 10.2377L83.1804 6.59995L87.3085 7.7952L86.2765 11.4329L87.5665 11.7967L89.9401 3.37797ZM89.0629 12.1605L90.3529 12.7321L92.159 11.0172L95.6678 12.6282L95.5646 15.1226L96.8546 15.6942L97.1642 6.23618L95.9258 5.66453L89.0629 12.1605ZM95.8742 7.37946L95.6678 11.277L93.0878 10.0818L95.8742 7.37946ZM111.819 15.1746L110.684 14.395L106.401 20.4752L103.821 18.6564L108.104 12.5762L106.968 11.7967L102.686 17.8249L100.105 16.006L104.388 9.92586L103.305 9.14635L98.2994 16.2659L106.762 22.346L111.819 15.1746ZM110.477 23.957L112.335 22.0342L115.07 24.6846L115.947 23.8011L113.212 21.1508L114.812 19.4878L118.269 22.8138L119.146 21.9303L114.708 17.669L108.62 23.9051L113.16 28.2703L114.038 27.3869L110.477 23.957ZM120.694 30.5049L121.933 25.2562L121.21 24.3208L114.399 29.7254L115.224 30.8167L120.178 26.8672L118.991 31.8561L124.048 31.908L119.095 35.8576L119.92 36.9489L126.731 31.5443L126.009 30.6089L120.694 30.5049ZM124.1 45.1597L124.667 46.4069L127.557 45.1077L128.744 45.5235L126.215 49.8368L126.886 51.3958L130.034 45.9912L134.678 47.5502L133.956 45.9392L129.208 44.3282L132.562 42.8212L131.995 41.574L128.641 43.081L130.55 38.4559L129.827 36.8449L127.918 41.4181L121.829 40.2228L122.5 41.7818L127.402 42.7172L126.886 43.9125L124.1 45.1597ZM135.71 52.1753L135.4 50.8242L126.938 52.7989L127.247 54.1501L129.776 53.5784L131.53 54.5658L128.176 58.3074L128.537 59.9704L132.666 55.2933L136.897 57.7358L136.484 56.0209L131.479 53.1627L135.71 52.1753Z" fill="white"/>
<path d="M127.557 84.7588C127.402 85.5383 127.454 86.2659 127.815 86.8895C128.176 87.5131 128.692 87.9288 129.363 88.0847C129.621 88.1367 129.879 88.1367 130.137 88.1367C130.395 88.0847 130.602 88.0328 130.808 87.9808C130.963 87.9288 131.169 87.8249 131.324 87.669C131.479 87.565 131.582 87.4611 131.634 87.4091C131.685 87.3572 131.737 87.3052 131.737 87.3052L131.84 87.565C131.943 87.721 132.098 87.9288 132.356 88.1367C132.614 88.3446 132.924 88.5005 133.233 88.5524C133.801 88.7083 134.368 88.5524 134.936 88.1887C135.504 87.8249 135.865 87.2532 136.02 86.5777L136.794 83.0959L128.331 81.1211L127.557 84.7588ZM129.208 82.6801L131.995 83.3037L131.479 85.5903C131.376 86.006 131.169 86.3178 130.859 86.4737C130.55 86.6816 130.189 86.7336 129.776 86.6296C129.363 86.5257 129.105 86.3178 128.899 86.006C128.692 85.6942 128.641 85.3305 128.744 84.9147L129.208 82.6801ZM134.884 86.2659C134.833 86.5777 134.626 86.8375 134.368 86.9934C134.11 87.1493 133.801 87.2013 133.491 87.1493C133.182 87.0973 132.924 86.8895 132.769 86.6296C132.614 86.3698 132.562 86.058 132.614 85.7462L133.078 83.6155L135.349 84.1352L134.884 86.2659ZM123.584 96.2956L131.634 99.5175L132.046 98.4262L128.021 91.5665L133.852 93.8531L134.368 92.5539L126.319 89.3319L125.906 90.4233L129.931 97.2829L124.1 94.9964L123.584 96.2956ZM124.1 98.0105L121.417 96.4515L120.746 97.6467L122.345 98.5821L119.404 103.779L117.805 102.843L117.134 104.039L119.817 105.598L120.333 104.662L126.783 108.404L129.569 103.467L127.299 102.168C126.731 101.856 126.215 101.492 125.803 101.129C125.338 100.765 125.029 100.401 124.771 100.141C124.564 99.8813 124.358 99.5695 124.203 99.2577C124.048 98.9459 123.945 98.79 123.893 98.6861C123.842 98.5821 123.842 98.5302 123.842 98.4782L124.1 98.0105ZM126.628 103.363L127.815 104.039L126.37 106.585L121.004 103.467L123.171 99.6215L123.223 99.8293C123.274 99.9852 123.377 100.193 123.532 100.453C123.687 100.713 123.893 100.973 124.1 101.284C124.306 101.596 124.667 101.908 125.132 102.324C125.545 102.688 126.061 103.051 126.628 103.363ZM117.753 108.04L119.869 109.703L117.547 112.717L118.527 113.497L120.849 110.483L122.655 111.886L119.714 115.679L120.694 116.459L124.461 111.626L117.65 106.221L113.78 111.158L114.76 111.938L117.753 108.04ZM114.76 116.199C115.379 116.875 115.689 117.602 115.637 118.486C115.637 119.369 115.276 120.149 114.605 120.772C113.934 121.396 113.212 121.708 112.283 121.656C111.406 121.656 110.632 121.292 110.013 120.616C109.394 119.941 109.084 119.213 109.136 118.278C109.136 117.394 109.497 116.615 110.168 115.991C110.838 115.368 111.612 115.056 112.49 115.108C113.418 115.212 114.141 115.575 114.76 116.199ZM115.74 115.264C114.863 114.38 113.831 113.912 112.593 113.861C111.354 113.861 110.271 114.276 109.342 115.16C108.413 116.043 107.897 117.134 107.897 118.382C107.846 119.629 108.258 120.72 109.136 121.604C110.013 122.487 111.045 122.955 112.283 123.007C113.522 123.007 114.605 122.591 115.534 121.708C116.463 120.824 116.979 119.733 116.979 118.486C117.03 117.238 116.618 116.199 115.74 115.264ZM103.924 121.344L105.472 123.734L103.614 124.93C103.253 125.137 102.943 125.241 102.531 125.137C102.169 125.033 101.86 124.826 101.653 124.514C101.447 124.15 101.344 123.786 101.447 123.423C101.55 123.059 101.757 122.747 102.066 122.539L103.924 121.344ZM101.395 121.5C100.725 121.915 100.312 122.539 100.105 123.215C99.9507 123.942 100.054 124.618 100.467 125.241C100.879 125.865 101.447 126.281 102.169 126.437C102.892 126.593 103.614 126.437 104.285 126.021L106.143 124.826L107.278 126.593L103.614 128.931L104.285 129.97L109.084 126.852L104.388 119.525L101.395 121.5ZM95.6162 130.022L95.513 130.126C95.4614 130.178 95.4098 130.334 95.3066 130.438C95.255 130.594 95.2034 130.75 95.1518 130.906C95.1002 131.062 95.1002 131.322 95.1518 131.529C95.2034 131.789 95.255 131.997 95.3582 132.257C95.6678 132.829 96.1322 133.192 96.803 133.348C97.4738 133.504 98.1962 133.348 99.0218 132.933C99.3314 132.777 99.641 132.569 99.8991 132.309C100.157 132.049 100.363 131.841 100.518 131.633C100.673 131.425 100.776 131.218 100.879 131.01C100.983 130.802 101.034 130.646 101.086 130.542C101.086 130.438 101.137 130.386 101.137 130.386L99.9506 130.022L99.8475 130.334C99.7442 130.542 99.5894 130.802 99.3314 131.114C99.0734 131.425 98.8154 131.633 98.5058 131.841C98.0414 132.049 97.6802 132.153 97.319 132.101C96.9578 132.049 96.6998 131.841 96.545 131.581C96.3902 131.27 96.3902 130.958 96.545 130.646C96.6998 130.282 97.0094 130.022 97.4222 129.814L98.351 129.347L97.7834 128.255L96.8546 128.723C96.287 128.983 95.8226 129.087 95.3582 129.035C94.9454 128.931 94.6358 128.723 94.4294 128.359C94.2746 127.996 94.2746 127.632 94.4294 127.216C94.6358 126.8 94.997 126.437 95.513 126.177C95.771 126.021 96.029 125.969 96.3386 125.865C96.6482 125.813 96.8546 125.761 97.061 125.761C97.2674 125.761 97.4738 125.761 97.6802 125.813C97.8866 125.865 97.9898 125.865 98.093 125.917C98.1446 125.917 98.1962 125.969 98.2478 125.969L98.609 124.774L98.4026 124.722C98.2994 124.67 98.093 124.618 97.8866 124.618C97.6286 124.566 97.3706 124.566 97.1126 124.566C96.8546 124.566 96.4934 124.618 96.1322 124.67C95.771 124.774 95.3582 124.878 94.997 125.085C94.0682 125.553 93.5006 126.177 93.191 126.904C92.8813 127.632 92.8813 128.307 93.2426 128.983C93.3974 129.243 93.5522 129.451 93.7586 129.659C93.965 129.814 94.1714 129.97 94.3778 130.022C94.5842 130.074 94.7906 130.126 94.997 130.126C95.2034 130.126 95.3582 130.126 95.4614 130.126C95.513 130.022 95.6162 130.022 95.6162 130.022ZM90.6109 131.893C90.8689 132.777 90.7657 133.608 90.3529 134.336C89.9401 135.115 89.2693 135.635 88.3921 135.843C87.5149 136.103 86.6893 135.999 85.9152 135.583C85.1412 135.167 84.6252 134.492 84.3672 133.608C84.1092 132.725 84.2124 131.893 84.6252 131.114C85.038 130.334 85.7088 129.814 86.5861 129.555C87.4633 129.295 88.2889 129.399 89.0629 129.814C89.8885 130.334 90.4045 131.01 90.6109 131.893ZM91.9525 131.529C91.5913 130.334 90.9205 129.399 89.8369 128.827C88.7533 128.255 87.5665 128.1 86.3281 128.463C85.0896 128.827 84.1608 129.555 83.5416 130.594C82.9224 131.685 82.8192 132.829 83.1288 134.024C83.49 135.219 84.1608 136.155 85.2444 136.726C86.328 137.298 87.4633 137.454 88.7533 137.09C89.9917 136.726 90.9205 135.999 91.5397 134.959C92.1589 133.868 92.2621 132.725 91.9525 131.529ZM81.0648 138.909L79.9812 130.23L78.6395 130.386L79.0523 133.504L76.9883 133.764C76.1627 133.868 75.4919 134.232 75.0275 134.855C74.5631 135.479 74.3567 136.155 74.4599 136.934C74.5631 137.714 74.9243 138.337 75.5435 138.805C76.1627 139.273 76.8851 139.48 77.7107 139.376L81.0648 138.909ZM77.5043 138.129C77.0915 138.181 76.6787 138.077 76.3691 137.817C76.0079 137.558 75.8531 137.194 75.8015 136.778C75.7499 136.362 75.8531 135.947 76.1111 135.635C76.3691 135.323 76.7303 135.115 77.1431 135.063L79.2071 134.803L79.62 137.921L77.5043 138.129ZM68.0098 135.739C67.9582 136.622 67.597 137.402 66.9262 137.973C66.2554 138.545 65.4813 138.805 64.5525 138.753C63.6753 138.701 62.9013 138.337 62.3337 137.662C61.7661 136.986 61.5081 136.206 61.5597 135.323C61.6113 134.44 61.9725 133.66 62.6433 133.088C63.3141 132.517 64.0881 132.257 65.0169 132.309C65.8942 132.361 66.6682 132.725 67.2358 133.4C67.855 134.076 68.0614 134.855 68.0098 135.739ZM69.3514 135.843C69.4546 134.595 69.0934 133.504 68.2678 132.569C67.4422 131.633 66.4102 131.114 65.1201 131.01C63.8301 130.906 62.6949 131.27 61.7661 132.049C60.8373 132.829 60.3213 133.868 60.2181 135.115C60.1149 136.362 60.4761 137.454 61.3017 138.389C62.1273 139.325 63.1593 139.844 64.4493 139.948C65.7394 140.052 66.8746 139.688 67.8034 138.909C68.7322 138.129 69.2998 137.09 69.3514 135.843ZM47.0599 136.622L48.3499 136.986L49.3303 133.452L53.4584 134.647L52.478 138.181L53.768 138.545L56.1416 130.126L54.8516 129.763L53.8196 133.4L49.6915 132.205L50.7235 128.567L49.4335 128.204L47.0599 136.622ZM47.9371 127.892L46.6471 127.32L44.841 129.035L41.3322 127.424L41.4354 124.93L40.1454 124.358L39.8358 133.816L41.0742 134.388L47.9371 127.892ZM41.1258 132.621L41.3322 128.723L43.9122 129.918L41.1258 132.621ZM25.2328 124.878L26.368 125.657L30.6508 119.577L33.2309 121.396L28.8964 127.476L30.0316 128.255L34.3145 122.175L36.8945 123.994L32.6117 130.074L33.6953 130.854L38.7006 123.734L30.238 117.654L25.2328 124.878ZM26.5228 116.043L24.6652 117.966L21.9303 115.316L21.0531 116.199L23.7879 118.849L22.1883 120.512L18.7311 117.186L17.8539 118.07L22.2915 122.331L28.3804 116.095L23.8395 111.73L22.9623 112.613L26.5228 116.043ZM16.3058 109.547L15.0674 114.796L15.7898 115.731L22.6011 110.327L21.7755 109.235L16.8218 113.185L18.0087 108.196L12.9518 108.144L17.9055 104.195L17.0798 103.103L10.2685 108.508L10.991 109.443L16.3058 109.547ZM12.9002 94.8405L12.3326 93.5933L9.44294 94.8924L8.25612 94.4767L10.7846 90.1634L10.1137 88.6044L6.9661 94.061L2.32203 92.5019L3.04444 94.1129L7.79171 95.7239L4.43766 97.179L5.00527 98.4262L8.35932 96.9192L6.45009 101.544L7.1725 103.155L9.08173 98.5821L15.1706 99.7774L14.4998 98.2184L9.59774 97.2829L10.1137 96.0877L12.9002 94.8405ZM1.29002 87.8249L1.59962 89.176L10.0621 87.2013L9.75254 85.8501L7.2241 86.4218L5.46968 85.4344L8.82373 81.6927L8.46252 80.0298L4.33446 84.7068L0 82.3163L0.412806 84.0313L5.41808 86.8895L1.29002 87.8249Z" fill="white"/>
</svg>
