<svg width="22" height="19" viewBox="0 0 22 19" fill="none" xmlns="http://www.w3.org/2000/svg">
<g clip-path="url(#clip0_2_11)">
<path d="M19.5445 0.263032L0.885381 7.5656C0.885381 7.5656 0.00017257 7.86466 0.0698741 8.42104C0.139576 8.97743 0.857501 9.23476 0.857501 9.23476L5.54841 10.8135L5.55538 10.8205V10.8135L16.8191 3.6709C16.8191 3.6709 17.4674 3.27447 17.4465 3.6709C17.4465 3.6709 17.5649 3.74045 17.2164 4.06732C16.8679 4.3942 8.36435 12.0167 8.36435 12.0167L8.35041 12.1627L16.0036 18.0187C17.2792 18.5751 17.7462 17.4136 17.7462 17.4136L21.0709 0.701186C21.0709 -0.411586 19.5375 0.263032 19.5445 0.263032Z" fill="#004778"/>
<path d="M11.2777 14.4022L8.2457 17.1633C8.2457 17.1633 8.00871 17.3441 7.75082 17.2329L8.32934 12.1071" fill="#004778"/>
</g>
<defs>
<clipPath id="clip0_2_11">
<rect width="21.008" height="18.1104" fill="white" transform="translate(0.0627441 0.0614014)"/>
</clipPath>
</defs>
</svg>
