<svg width="23" height="22" viewBox="0 0 23 22" fill="none" xmlns="http://www.w3.org/2000/svg">
<path d="M18.9367 3.66452C16.962 1.69959 14.3359 0.61261 11.5419 0.61261C5.78568 0.61261 1.07988 5.27409 1.07988 11.0226C1.07988 12.8621 1.56307 14.6389 2.46641 16.2275L0.99585 21.6206L6.54197 20.1783C8.07555 21.0144 9.79821 21.4534 11.5419 21.4534C17.2981 21.4534 22.0039 16.7919 22.0039 11.0435C22.0039 8.24239 20.9115 5.62945 18.9367 3.66452ZM11.5419 19.6766C9.98729 19.6766 8.4537 19.2585 7.10919 18.4642L6.79407 18.2761L3.51681 19.154L4.39915 15.9558L4.18907 15.6213C3.32774 14.2417 2.86556 12.653 2.86556 11.0226C2.84456 6.25656 6.75205 2.3685 11.5419 2.3685C13.8738 2.3685 16.0376 3.26736 17.6972 4.89783C19.3359 6.5283 20.2392 8.70227 20.2392 11.0226C20.2392 15.7886 16.3317 19.6766 11.5419 19.6766ZM16.3107 13.1965C16.0586 13.0711 14.7561 12.444 14.525 12.3604C14.2939 12.2768 14.1049 12.235 13.9368 12.4858C13.7687 12.7366 13.2645 13.3219 13.1175 13.5101C12.9704 13.6773 12.8024 13.6982 12.5503 13.5728C12.2982 13.4474 11.4368 13.1756 10.4495 12.2768C9.67216 11.587 9.14696 10.7299 8.99991 10.4791C8.85285 10.2282 8.9789 10.0819 9.10495 9.95648C9.231 9.83106 9.35705 9.64293 9.5041 9.4966C9.63015 9.35028 9.67216 9.24576 9.7562 9.05763C9.84023 8.8904 9.79821 8.72317 9.73519 8.59775C9.67216 8.47233 9.14696 7.19722 8.93688 6.67463C8.7268 6.17294 8.51672 6.23565 8.34866 6.23565C8.2016 6.23565 8.01253 6.23565 7.84447 6.23565C7.6764 6.23565 7.38229 6.29836 7.1512 6.57011C6.92011 6.82095 6.22685 7.46896 6.22685 8.74408C6.22685 10.0192 7.17221 11.2525 7.29826 11.4406C7.42431 11.6079 9.14696 14.2417 11.773 15.3705C12.4032 15.6422 12.8864 15.7886 13.2645 15.914C13.8948 16.1021 14.462 16.0812 14.9032 16.0185C15.4074 15.9349 16.4578 15.3914 16.6678 14.7852C16.8779 14.179 16.8779 13.6564 16.8149 13.5519C16.7519 13.3847 16.5838 13.3219 16.3107 13.1965Z" fill="#004778"/>
</svg>
